<svg width="68" height="68" viewBox="0 0 68 68" fill="none" xmlns="http://www.w3.org/2000/svg">
<g clip-path="url(#clip0_0_4541)">
<path d="M25.7554 3.86977C21.7834 3.86977 18.5633 7.08985 18.5633 11.0619V19.9745H25.7554V23.3473H49.2966V13.5386C49.2966 6.958 43.962 1.62354 37.3816 1.62354H29.8191C25.6639 1.6234 25.7554 3.86977 25.7554 3.86977Z" fill="#494A47"/>
<path d="M28.8225 3.86978C28.8225 3.86978 28.7309 1.62341 32.886 1.62341H29.819C25.6639 1.62341 25.7554 3.86978 25.7554 3.86978C21.7834 3.86978 18.5633 7.08986 18.5633 11.0619V19.9745H21.6302V11.0619C21.6303 7.08986 24.8503 3.86978 28.8225 3.86978Z" fill="#333331"/>
<path d="M15.3394 40.324V50.6876H20.9896V66.9862H46.8702V50.6876H52.5205V40.324H15.3394Z" fill="#68C0E0"/>
<path d="M15.3394 40.324H18.4064V50.6876H15.3394V40.324ZM20.9896 50.6876H24.0567V66.9862H20.9896V50.6876Z" fill="#3282A1"/>
<path d="M39.2493 41.4185C36.1378 43.9017 31.722 43.9017 28.6105 41.4185V31.7026H39.2493V41.4185Z" fill="#FFB09E"/>
<path d="M23.0949 25.9176H20.5095C18.7686 25.9176 17.3573 24.5064 17.3573 22.7655C17.3573 21.0246 18.7685 19.6133 20.5095 19.6133H23.0949V25.9176ZM44.7649 25.9176H47.3504C49.0912 25.9176 50.5026 24.5064 50.5026 22.7655C50.5026 21.0246 49.0913 19.6133 47.3504 19.6133H44.7649V25.9176Z" fill="#FFB09E"/>
<path d="M40.5846 14.0718C34.1374 14.6207 26.3091 12.0132 26.3091 12.0132C26.3091 17.0909 21.697 19.3647 21.697 19.3647V24.4115C21.697 31.1448 27.1554 36.6032 33.8888 36.6032C40.6221 36.6032 46.0805 31.1448 46.0805 24.4115V19.6132C43.1952 19.1681 40.5846 14.0718 40.5846 14.0718Z" fill="#FFCEBF"/>
<path d="M24.7641 24.4115V19.3647C24.7641 19.3647 28.8596 17.3437 29.3305 12.8599C27.4979 12.4091 26.3091 12.0132 26.3091 12.0132C26.3091 17.0909 21.697 19.3647 21.697 19.3647V24.4115C21.697 31.1448 27.1554 36.6032 33.8888 36.6032C34.4014 36.6033 34.9136 36.5713 35.4222 36.5074C29.4129 35.7533 24.7641 30.6255 24.7641 24.4115Z" fill="#FFB09E"/>
<path d="M9.1357 40.324L9.77821 25.4305L12.1822 25.6908C12.7816 25.7557 13.3856 25.6189 13.8986 25.3021C14.4116 24.9854 14.8044 24.5067 15.0149 23.9417L15.3748 22.9756C15.5129 22.6048 15.5683 22.2083 15.5369 21.8138C15.5055 21.4194 15.3881 21.0366 15.1931 20.6924L14.7998 19.9981C14.55 19.5572 14.1816 19.1951 13.7365 18.9529C13.2913 18.7107 12.7872 18.5981 12.2813 18.6279L9.89374 18.7684C9.4545 18.7943 9.02815 18.9266 8.65149 19.154C8.27482 19.3815 7.95915 19.6971 7.73172 20.0738L5.15758 24.3375L1.35933 41.8626C0.632076 45.2181 3.18858 48.3879 6.62182 48.3879H15.3394V40.3239H9.1357V40.324Z" fill="#FFCEBF"/>
<path d="M12.8504 25.6799C13.0769 25.6482 13.2985 25.588 13.5099 25.5007L12.8612 25.4304L12.8504 25.6799ZM4.4423 41.8626L8.24068 24.3373L10.8148 20.0737C11.0422 19.697 11.3579 19.3813 11.7346 19.1539C12.1112 18.9265 12.5376 18.7941 12.9768 18.7683L13.2616 18.7516C12.9452 18.6505 12.6129 18.6086 12.2813 18.6279L9.89374 18.7684C9.45449 18.7942 9.02813 18.9266 8.65146 19.154C8.27479 19.3815 7.95913 19.6971 7.73172 20.0738L5.15758 24.3375L1.35933 41.8626C0.632076 45.2181 3.18858 48.3879 6.62182 48.3879H9.70492C6.27155 48.3879 3.71504 45.218 4.4423 41.8626Z" fill="#FFB09E"/>
<path d="M58.7242 40.324L58.0817 25.4305L55.6777 25.6908C55.0783 25.7557 54.4743 25.6189 53.9613 25.3021C53.4483 24.9854 53.0555 24.5067 52.845 23.9417L52.4851 22.9756C52.347 22.6048 52.2917 22.2083 52.3231 21.8138C52.3545 21.4194 52.4718 21.0366 52.6669 20.6924L53.0602 19.9981C53.3099 19.5572 53.6783 19.1951 54.1235 18.9529C54.5686 18.7107 55.0727 18.5981 55.5786 18.6279L57.9662 18.7684C58.4054 18.7943 58.8318 18.9266 59.2084 19.154C59.5851 19.3815 59.9008 19.6971 60.1282 20.0738L62.7024 24.3375L66.5007 41.8627C67.228 45.2182 64.6715 48.388 61.2382 48.388H52.5207V40.324H58.7242Z" fill="#FFCEBF"/>
<path d="M56.3507 45.1836C53.8613 45.1836 51.6816 46.4772 50.4232 48.4228C49.165 46.4772 46.9851 45.1835 44.4959 45.1835C40.5937 45.1835 37.4303 48.3468 37.4303 52.2489C37.4302 57.966 49.4178 66.0912 50.423 66.9999C51.4283 66.0913 63.416 57.9664 63.4162 52.2493C63.4162 48.3471 60.2529 45.1836 56.3507 45.1836Z" fill="#E15F4F"/>
<path d="M40.4972 52.2489C40.4972 48.8733 42.8652 46.0525 46.0301 45.352C45.5264 45.2398 45.0119 45.1832 44.4959 45.1833C40.5937 45.1833 37.4303 48.3467 37.4303 52.2488C37.4302 57.9659 49.4178 66.0911 50.423 66.9998C50.6084 66.8322 51.1681 66.4186 51.9566 65.8204C48.4702 63.1756 40.4972 56.9117 40.4972 52.2489Z" fill="#CA4336"/>
<path d="M49.8815 58.8999C49.6908 58.9001 49.5019 58.8627 49.3257 58.7897C49.1495 58.7167 48.9894 58.6096 48.8548 58.4746L45.7724 55.3923C45.2053 54.8253 45.2053 53.9058 45.7724 53.3387C46.3394 52.7717 47.2589 52.7717 47.826 53.3387L49.8815 55.3941L55.2048 50.071C55.7719 49.5039 56.6914 49.5039 57.2584 50.071C57.8255 50.638 57.8255 51.5575 57.2584 52.1246L50.9082 58.4746C50.7735 58.6096 50.6135 58.7167 50.4373 58.7897C50.2611 58.8626 50.0722 58.9001 49.8815 58.8999Z" fill="#4EB7A2"/>
<path d="M28.7782 21.7916C28.593 21.7916 28.4154 21.8652 28.2845 21.9961C28.1535 22.1271 28.0799 22.3047 28.0799 22.4899C28.0799 22.6751 28.1535 22.8527 28.2845 22.9837C28.4154 23.1146 28.593 23.1882 28.7782 23.1882C28.9634 23.1882 29.141 23.1146 29.272 22.9837C29.403 22.8527 29.4765 22.6751 29.4765 22.4899C29.4765 22.3047 29.403 22.1271 29.272 21.9961C29.141 21.8652 28.9634 21.7916 28.7782 21.7916ZM39.0816 21.7916C38.8964 21.7916 38.7188 21.8652 38.5879 21.9961C38.4569 22.1271 38.3833 22.3047 38.3833 22.4899C38.3833 22.6751 38.4569 22.8527 38.5879 22.9837C38.7188 23.1146 38.8964 23.1882 39.0816 23.1882C39.2668 23.1882 39.4444 23.1146 39.5754 22.9837C39.7064 22.8527 39.7799 22.6751 39.7799 22.4899C39.7799 22.3047 39.7064 22.1271 39.5754 21.9961C39.4444 21.8652 39.2668 21.7916 39.0816 21.7916ZM30.9183 19.3161C30.2591 18.9172 29.5033 18.7063 28.7328 18.7063C27.9623 18.7063 27.2066 18.9172 26.5474 19.3161C26.4729 19.3606 26.4079 19.4193 26.3562 19.4889C26.3045 19.5586 26.2671 19.6378 26.2461 19.7219C26.2251 19.8061 26.2209 19.8936 26.2339 19.9793C26.2468 20.0651 26.2766 20.1475 26.3215 20.2217C26.3664 20.2959 26.4255 20.3605 26.4955 20.4118C26.5655 20.4631 26.6449 20.5 26.7292 20.5205C26.8135 20.541 26.901 20.5446 26.9867 20.5311C27.0723 20.5176 27.1545 20.4873 27.2285 20.4419C27.6823 20.1674 28.2026 20.0222 28.733 20.0222C29.2634 20.0222 29.7837 20.1674 30.2375 20.4419C30.3114 20.4867 30.3934 20.5165 30.4788 20.5295C30.5642 20.5426 30.6514 20.5387 30.7353 20.518C30.8192 20.4974 30.8982 20.4604 30.9678 20.4092C31.0374 20.358 31.0962 20.2935 31.1409 20.2196C31.2312 20.0702 31.2584 19.8912 31.2167 19.7218C31.1749 19.5523 31.0676 19.4064 30.9183 19.3161ZM37.6225 20.4419C38.0763 20.1673 38.5966 20.0222 39.127 20.0222C39.6574 20.0222 40.1777 20.1673 40.6315 20.4419C40.7054 20.4867 40.7874 20.5165 40.8729 20.5295C40.9583 20.5426 41.0454 20.5387 41.1293 20.518C41.2133 20.4974 41.2923 20.4604 41.3619 20.4092C41.4315 20.358 41.4903 20.2935 41.535 20.2196C41.6253 20.0703 41.6526 19.8912 41.6109 19.7218C41.5692 19.5524 41.4619 19.4065 41.3126 19.3161C40.6534 18.9172 39.8976 18.7063 39.1272 18.7063C38.3567 18.7063 37.6009 18.9172 36.9417 19.3161C36.7953 19.4078 36.6909 19.5534 36.6509 19.7214C36.6109 19.8894 36.6386 20.0664 36.728 20.2141C36.8173 20.3619 36.9612 20.4686 37.1286 20.5113C37.2959 20.5539 37.4733 20.529 37.6225 20.4419ZM36.1154 30.6272C36.1899 30.5828 36.2548 30.524 36.3066 30.4544C36.3583 30.3847 36.3957 30.3056 36.4167 30.2214C36.4377 30.1372 36.4418 30.0497 36.4289 29.964C36.4159 29.8782 36.3862 29.7958 36.3413 29.7216C36.2964 29.6474 36.2372 29.5828 36.1673 29.5315C36.0973 29.4802 36.0179 29.4433 35.9336 29.4228C35.8493 29.4024 35.7618 29.3988 35.6761 29.4122C35.5904 29.4257 35.5082 29.456 35.4343 29.5014C34.9805 29.776 34.4602 29.9212 33.9298 29.9212C33.3994 29.9212 32.8791 29.776 32.4253 29.5014C32.276 29.4124 32.0976 29.386 31.929 29.4281C31.7604 29.4701 31.6153 29.5772 31.5253 29.7259C31.4354 29.8745 31.4079 30.0528 31.4489 30.2217C31.4899 30.3905 31.5961 30.5363 31.7442 30.6272C32.4035 31.026 33.1593 31.2369 33.9298 31.2369C34.7003 31.2369 35.4561 31.026 36.1154 30.6272Z" fill="black"/>
<path d="M67.1436 41.7232L63.3452 24.198C63.3299 24.1271 63.303 24.0593 63.2655 23.9973L60.6914 19.7336C60.4088 19.2655 60.0166 18.8732 59.5486 18.5906C59.0805 18.308 58.5507 18.1436 58.0049 18.1115L55.6172 17.971C54.3407 17.8962 53.1159 18.5645 52.4875 19.6738L52.0943 20.3679C51.8515 20.7955 51.7054 21.2712 51.6664 21.7615C51.6274 22.2517 51.6964 22.7445 51.8685 23.2052L52.2284 24.1713C52.4895 24.8737 52.9775 25.4689 53.6151 25.8626C54.2528 26.2563 55.0035 26.426 55.7485 26.3447L57.4547 26.16L58.0372 39.666H39.9073V35.7615C43.3582 33.9242 45.8768 30.5596 46.5554 26.5754H47.3504C49.4514 26.5754 51.1605 24.8661 51.1605 22.7653C51.1605 21.6708 50.696 20.6834 49.9545 19.9879V13.5385C49.9545 6.60571 44.3143 0.965576 37.3815 0.965576H29.8189C27.9645 0.965576 26.6177 1.38914 25.8157 2.22455C25.4808 2.57338 25.3013 2.93378 25.2055 3.23089C21.1327 3.51419 17.9054 6.91835 17.9054 11.0619V19.9744C17.9054 19.9787 17.9064 19.9826 17.9065 19.9868C17.1644 20.6825 16.6994 21.6704 16.6994 22.7654C16.6994 24.8663 18.4085 26.5755 20.5095 26.5755H21.2223C21.9062 30.5914 24.4596 33.9778 27.9526 35.8051V39.666H9.82254L10.4052 26.16L12.1114 26.3447C12.8563 26.4258 13.607 26.256 14.2446 25.8623C14.8822 25.4687 15.3702 24.8736 15.6315 24.1713L15.9914 23.2052C16.1635 22.7445 16.2325 22.2517 16.1935 21.7615C16.1545 21.2712 16.0084 20.7955 15.7656 20.3679L15.3723 19.6736C14.7438 18.5644 13.5164 17.8965 12.2426 17.9708L9.85504 18.1114C9.30922 18.1434 8.7794 18.3079 8.31134 18.5905C7.84328 18.8731 7.45105 19.2654 7.16853 19.7335L4.59439 23.9972C4.55689 24.0591 4.52992 24.127 4.51465 24.1978L0.716274 41.7232C0.327317 43.5179 0.765354 45.367 1.91814 46.7965C3.07093 48.226 4.78532 49.0458 6.62181 49.0458H14.6815V50.6877C14.6815 50.7741 14.6985 50.8596 14.7316 50.9394C14.7646 51.0193 14.8131 51.0918 14.8742 51.1529C14.9353 51.214 15.0078 51.2624 15.0876 51.2955C15.1674 51.3286 15.253 51.3456 15.3394 51.3456H20.3317V66.9862C20.3317 67.1607 20.401 67.328 20.5244 67.4514C20.6478 67.5748 20.8152 67.6441 20.9896 67.6441H46.8703C47.0447 67.6441 47.2121 67.5748 47.3355 67.4514C47.4588 67.328 47.5282 67.1607 47.5282 66.9862V65.6009C48.0256 65.9881 48.526 66.3715 49.0293 66.7512C49.4953 67.1031 49.8633 67.3808 49.9818 67.4879C50.107 67.6012 50.2649 67.6578 50.423 67.6578C50.581 67.6578 50.7388 67.6012 50.8642 67.4879C50.9826 67.3808 51.3505 67.1031 51.8164 66.7515C57.0784 62.779 64.0739 56.9537 64.0741 52.2493C64.0741 50.9757 63.7624 49.7742 63.2141 48.7141C64.2721 48.3497 65.2179 47.6942 65.9419 46.7965C67.0945 45.367 67.5326 43.5179 67.1436 41.7232ZM47.3504 25.2597H46.7099C46.7283 24.9793 46.7385 24.6967 46.7385 24.4115V20.2712H47.3504C48.7257 20.2712 49.8447 21.3901 49.8447 22.7654C49.8447 24.1407 48.7257 25.2597 47.3504 25.2597ZM19.2212 11.0619C19.2212 7.45889 22.1524 4.52763 25.7554 4.52763C25.9403 4.52763 26.1177 4.46632 26.2424 4.32973C26.3654 4.19499 26.4279 4.03144 26.4135 3.85012C26.4194 3.71275 26.5607 2.28113 29.8189 2.28113H37.3815C43.5887 2.28113 48.6387 7.33112 48.6387 13.5382V19.1798C48.2255 19.0309 47.7896 18.9549 47.3504 18.9552H46.1427C44.0635 18.5961 41.8509 15.0979 41.17 13.7714C41.1104 13.6553 41.0176 13.5595 40.9034 13.4962C40.7893 13.4329 40.6589 13.405 40.5288 13.416C39.9376 13.4664 39.3339 13.4892 38.724 13.489C32.9039 13.4889 26.5866 11.4119 26.5169 11.3887C26.418 11.3558 26.3127 11.3469 26.2097 11.3626C26.1067 11.3784 26.0088 11.4184 25.9243 11.4793C25.8398 11.5403 25.7709 11.6204 25.7234 11.7132C25.676 11.806 25.6512 11.9087 25.6512 12.0129C25.6512 16.6059 21.5782 18.6886 21.4061 18.7743C21.3193 18.8173 21.243 18.879 21.1829 18.9551H20.5094C20.0574 18.9551 19.6237 19.0346 19.221 19.1797V11.0619H19.2212ZM20.5095 25.2597C19.1342 25.2597 18.0152 24.1409 18.0152 22.7654C18.0152 21.39 19.1341 20.2712 20.5095 20.2712H21.0391V24.4115C21.0391 24.6965 21.0494 24.9792 21.0678 25.2597H20.5095ZM22.3549 24.4115V19.7519C23.4372 19.1093 26.5233 16.9386 26.924 12.8936C29.0654 13.531 34.9629 15.096 40.2089 14.7595C40.8637 15.9263 42.9488 19.3269 45.4227 20.1296V24.4115C45.4227 30.7713 40.2486 35.9453 33.8889 35.9453C27.529 35.9455 22.3549 30.7713 22.3549 24.4115ZM33.8889 37.2613C35.5479 37.2613 37.1345 36.9452 38.5915 36.3702V41.0943C35.805 43.1476 32.055 43.1476 29.2685 41.0943V36.4015C30.7423 36.9712 32.3089 37.2627 33.8889 37.2613ZM6.62181 47.73C5.18533 47.73 3.84424 47.0886 2.94238 45.9705C2.04065 44.8523 1.69788 43.4058 2.00222 42.0019L5.77745 24.5838L8.29487 20.4138C8.46709 20.1285 8.70617 19.8894 8.99147 19.7171C9.27677 19.5448 9.59971 19.4446 9.93241 19.4251L12.32 19.2846C13.0958 19.2384 13.8443 19.6463 14.2275 20.3223L14.6208 21.0166C14.7689 21.2772 14.8579 21.5671 14.8817 21.8659C14.9055 22.1647 14.8634 22.4651 14.7584 22.7458L14.3986 23.7119C14.2395 24.1401 13.9421 24.5029 13.5535 24.7429C13.1648 24.9829 12.7072 25.0863 12.2531 25.0367L9.84899 24.7764C9.75954 24.7667 9.66905 24.7755 9.58313 24.8022C9.49721 24.8289 9.41767 24.8729 9.34943 24.9315C9.2812 24.9902 9.22571 25.0622 9.18641 25.1431C9.14711 25.224 9.12483 25.3122 9.12094 25.4021L8.47843 40.2956C8.47459 40.3843 8.48875 40.4728 8.52005 40.5559C8.55135 40.639 8.59915 40.7149 8.66055 40.779C8.72196 40.8432 8.79572 40.8942 8.87737 40.9291C8.95903 40.9639 9.0469 40.9819 9.13568 40.9819H14.6815V47.73H6.62181ZM46.2123 66.3283H21.6476V50.6877C21.6476 50.6013 21.6305 50.5157 21.5975 50.4359C21.5644 50.3561 21.5159 50.2835 21.4549 50.2225C21.3938 50.1614 21.3212 50.1129 21.2414 50.0798C21.1616 50.0468 21.076 50.0298 20.9896 50.0298H15.9973V40.9819H27.9527V41.4186C27.9527 41.5174 27.9749 41.615 28.0178 41.704C28.0606 41.793 28.123 41.8712 28.2002 41.9329C29.8212 43.2266 31.8561 43.939 33.9299 43.939C36.0039 43.939 38.0389 43.2264 39.6598 41.9329C39.737 41.8712 39.7993 41.793 39.8422 41.704C39.885 41.6149 39.9073 41.5174 39.9073 41.4186V40.9819H51.8626V45.9722C51.3278 46.356 50.8441 46.8065 50.4232 47.3127C48.9629 45.5527 46.8076 44.5254 44.4959 44.5254H44.4957C40.2375 44.5254 36.7725 47.9904 36.7724 52.2488C36.7723 56.1461 41.5733 60.8128 46.2123 64.558V66.3283ZM51.0235 65.7013C50.7828 65.883 50.5839 66.0332 50.423 66.1567C50.2618 66.033 50.063 65.8829 49.8222 65.701C46.92 63.5099 38.0881 56.842 38.0882 52.2489C38.0883 48.7156 40.9629 45.8412 44.4959 45.8412C46.6716 45.8412 48.681 46.9398 49.8708 48.7799C49.9305 48.8721 50.0123 48.948 50.1088 49.0005C50.2052 49.053 50.3133 49.0806 50.4232 49.0806C50.5331 49.0806 50.6412 49.0531 50.7376 49.0006C50.8341 48.9481 50.916 48.8722 50.9756 48.78C52.1658 46.9399 54.1752 45.8414 56.3509 45.8415C59.884 45.8415 62.7583 48.716 62.7583 52.2493C62.7581 56.8425 53.9259 63.5102 51.0235 65.7013ZM64.9175 45.9705C64.2949 46.745 63.4429 47.3023 62.4838 47.5623C61.0711 45.7181 58.8482 44.5257 56.3509 44.5255C55.2568 44.5253 54.1751 44.7589 53.1786 45.2106V40.9817H58.7242C58.813 40.9816 58.9009 40.9637 58.9825 40.9288C59.0642 40.8939 59.1379 40.8429 59.1993 40.7788C59.2607 40.7146 59.3085 40.6388 59.3398 40.5557C59.3711 40.4726 59.3853 40.384 59.3815 40.2953L58.7391 25.4018C58.7352 25.3119 58.7128 25.2238 58.6735 25.1429C58.6342 25.062 58.5787 24.99 58.5105 24.9313C58.4423 24.8727 58.3628 24.8286 58.2769 24.8019C58.191 24.7752 58.1005 24.7664 58.011 24.776L55.6069 25.0363C55.1529 25.0857 54.6953 24.9822 54.3067 24.7423C53.9181 24.5023 53.6207 24.1396 53.4615 23.7115L53.1016 22.7453C52.9966 22.4645 52.9545 22.1642 52.9783 21.8654C53.0021 21.5666 53.0912 21.2767 53.2392 21.016L53.6324 20.322C54.0153 19.6459 54.7619 19.2378 55.5398 19.2842L57.9275 19.4247C58.2602 19.4442 58.5831 19.5444 58.8684 19.7167C59.1536 19.889 59.3927 20.1281 59.5649 20.4134L62.0825 24.5834L65.8575 42.0015C66.1619 43.4058 65.8194 44.8523 64.9175 45.9705Z" fill="black"/>
<path d="M56.2317 48.9878C55.9544 48.987 55.6798 49.0413 55.4237 49.1474C55.1676 49.2534 54.935 49.4093 54.7395 49.6058L49.8814 54.4638L48.2911 52.8735C47.4686 52.051 46.13 52.0508 45.3072 52.8735C44.9086 53.2721 44.689 53.802 44.689 54.3656C44.689 54.9291 44.9086 55.4591 45.3072 55.8576L48.3894 58.9399C48.5848 59.1364 48.8174 59.2923 49.0735 59.3984C49.3296 59.5044 49.6042 59.5587 49.8814 59.5579C50.4448 59.5579 50.9748 59.3384 51.3734 58.9399L57.7235 52.5899C58.1221 52.1913 58.3416 51.6615 58.3416 51.0978C58.3416 50.5342 58.1221 50.0043 57.7237 49.606C57.5282 49.4094 57.2957 49.2535 57.0396 49.1474C56.7835 49.0413 56.5089 48.987 56.2317 48.9878ZM56.7933 51.6593L50.4431 58.0093C50.3695 58.0833 50.282 58.142 50.1856 58.182C50.0891 58.2219 49.9858 58.2424 49.8814 58.2421C49.777 58.2424 49.6736 58.222 49.5772 58.182C49.4808 58.1421 49.3933 58.0834 49.3197 58.0095L46.2375 54.927C46.0873 54.777 46.0047 54.5777 46.0047 54.3656C46.0047 54.1534 46.0873 53.9541 46.2375 53.804C46.3112 53.7302 46.3987 53.6717 46.4951 53.6318C46.5915 53.592 46.6948 53.5715 46.7991 53.5717C47.0025 53.5717 47.2059 53.6491 47.3608 53.804L49.4162 55.8594C49.4773 55.9205 49.5498 55.969 49.6296 56.002C49.7095 56.0351 49.795 56.0521 49.8814 56.0521C49.9678 56.0521 50.0533 56.0351 50.1331 56.002C50.2129 55.969 50.2854 55.9205 50.3465 55.8594L55.6698 50.5363C55.8199 50.3863 56.0194 50.3036 56.2317 50.3036C56.4439 50.3036 56.6431 50.3863 56.7933 50.5363C56.8672 50.6098 56.9259 50.6974 56.9658 50.7938C57.0058 50.8902 57.0262 50.9935 57.0259 51.0978C57.0261 51.2022 57.0057 51.3055 56.9657 51.4019C56.9258 51.4982 56.8672 51.5857 56.7933 51.6593Z" fill="black"/>
</g>
<defs>
<clipPath id="clip0_0_4541">
<rect width="67.37" height="67.37" fill="white" transform="translate(0.244934 0.619751)"/>
</clipPath>
</defs>
</svg>
