<svg width="68" height="68" viewBox="0 0 68 68" fill="none" xmlns="http://www.w3.org/2000/svg">
<g clip-path="url(#clip0_0_4414)">
<path d="M15.0098 52.3441H10.3702C9.18857 52.3443 8.01848 52.1117 6.92677 51.6596C5.83506 51.2075 4.8431 50.5447 4.00756 49.7092C3.17203 48.8737 2.50928 47.8817 2.05717 46.79C1.60506 45.6983 1.37245 44.5282 1.37262 43.3466V31.0555C1.37262 30.1799 1.72044 29.3402 2.33958 28.721C2.95871 28.1019 3.79843 27.7541 4.67401 27.7541H63.1859C64.0615 27.7541 64.9012 28.1019 65.5203 28.721C66.1395 29.3402 66.4873 30.1799 66.4873 31.0555V43.3531C66.4873 45.7391 65.5395 48.0273 63.8524 49.7145C62.1652 51.4016 59.877 52.3494 57.491 52.3494H15.0098V52.3441Z" fill="#7BF6FF"/>
<path d="M57.4897 53.4718H10.3702C7.68533 53.47 5.11095 52.4027 3.21247 50.5042C1.314 48.6058 0.246677 46.0314 0.244934 43.3465L0.244934 31.0555C0.246327 29.8812 0.713405 28.7555 1.54371 27.9252C2.37402 27.0949 3.49976 26.6278 4.67399 26.6264H63.1859C64.3601 26.6278 65.4859 27.0949 66.3162 27.9252C67.1465 28.7555 67.6135 29.8812 67.6149 31.0555V43.3531C67.6115 46.0368 66.5434 48.6095 64.6451 50.5066C62.7468 52.4036 60.1734 53.47 57.4897 53.4718ZM4.67399 28.8765C4.38824 28.8768 4.10537 28.9334 3.84153 29.0432C3.57768 29.1529 3.33804 29.3135 3.1363 29.5158C2.93455 29.7182 2.77466 29.9583 2.66575 30.2225C2.55684 30.4867 2.50105 30.7697 2.50157 31.0555V43.3531C2.504 45.4392 3.3338 47.4392 4.80892 48.9144C6.28404 50.3895 8.28404 51.2193 10.3702 51.2217H57.4897C59.5758 51.2193 61.5758 50.3895 63.0509 48.9144C64.5261 47.4392 65.3559 45.4392 65.3583 43.3531V31.0555C65.3576 30.4795 65.1285 29.9273 64.7212 29.5201C64.314 29.1128 63.7618 28.8837 63.1859 28.883L4.67399 28.8765Z" fill="#5E1235"/>
<path d="M8.23462 42.515H58.9792V46.14H8.23462V42.515Z" fill="#627EBD"/>
<path d="M58.9792 47.269H8.23459C7.93552 47.269 7.64869 47.1502 7.43722 46.9387C7.22574 46.7272 7.10693 46.4404 7.10693 46.1413V42.5149C7.10693 42.2159 7.22574 41.929 7.43722 41.7176C7.64869 41.5061 7.93552 41.3873 8.23459 41.3873H58.9792C59.2783 41.3873 59.5651 41.5061 59.7766 41.7176C59.9881 41.929 60.1069 42.2159 60.1069 42.5149V46.14C60.107 46.2882 60.078 46.435 60.0214 46.572C59.9648 46.7089 59.8818 46.8334 59.777 46.9382C59.6723 47.0431 59.5479 47.1263 59.411 47.183C59.2741 47.2398 59.1274 47.269 58.9792 47.269ZM9.36225 45.0124H57.8502V43.6439H9.36225V45.0124Z" fill="#5E1235"/>
<path d="M20.577 65.3983L19.0203 63.7641L19.0059 63.7772C19.0217 63.7615 20.5559 62.1456 20.5559 57.9363C20.5559 56.8837 20.1612 56.381 19.5519 55.6297C18.7993 54.6928 17.8624 53.5244 17.8624 51.202C17.8624 47.1479 19.3927 45.6018 19.573 45.4387L21.1125 47.0887L21.1362 47.0663C21.1257 47.0769 20.1243 48.1664 20.1243 51.2033C20.1243 52.7336 20.6507 53.3875 21.3165 54.2165C21.9823 55.0455 22.8178 56.085 22.8178 57.9363C22.8125 63.1246 20.8059 65.1865 20.577 65.3983ZM26.0139 65.3983L24.456 63.7694L24.4415 63.7825C24.4573 63.7667 25.9916 62.1509 25.9916 57.9416C25.9916 56.8889 25.5968 56.3863 24.9876 55.635C24.2349 54.6981 23.2981 53.5296 23.2981 51.2072C23.2981 47.1532 24.8284 45.6071 25.0086 45.4439L26.5482 47.094L26.5718 47.0716C26.5613 47.0821 25.56 48.1716 25.56 51.2085C25.56 52.7388 26.0863 53.3928 26.7521 54.2218C27.4179 55.0507 28.2535 56.0902 28.2535 57.9416C28.2495 63.1246 26.2429 65.1865 26.0139 65.3983ZM31.4509 65.3983L29.8943 63.7641L29.8798 63.7772C29.8956 63.7615 31.4299 62.1456 31.4299 57.9363C31.4299 56.8837 31.0351 56.381 30.4259 55.6297C29.6732 54.6928 28.7364 53.5244 28.7364 51.202C28.7364 47.1479 30.2667 45.6018 30.4469 45.4387L31.9864 47.0887L32.0101 47.0663C31.9996 47.0769 30.9983 48.1664 30.9983 51.2033C30.9983 52.7336 31.5246 53.3875 32.1904 54.2165C32.8562 55.0455 33.6917 56.085 33.6917 57.9363C33.6865 63.1246 31.6799 65.1865 31.4509 65.3983ZM36.8879 65.3983L35.3313 63.7641L35.3168 63.7772C35.3326 63.7615 36.8668 62.1456 36.8668 57.9363C36.8668 56.8837 36.4721 56.381 35.8629 55.6297C35.1102 54.6928 34.1733 53.5244 34.1733 51.202C34.1733 47.1479 35.7036 45.6018 35.8839 45.4387L37.4234 47.0887L37.4471 47.0663C37.4366 47.0769 36.4352 48.1664 36.4352 51.2033C36.4352 52.7336 36.9616 53.3875 37.6274 54.2165C38.2932 55.0455 39.1287 56.085 39.1287 57.9363C39.1235 63.1246 37.1168 65.1865 36.8879 65.3983ZM42.3248 65.3983L40.7722 63.7694L40.7577 63.7825C40.7735 63.7667 42.3077 62.1509 42.3077 57.9416C42.3077 56.8889 41.913 56.3863 41.3038 55.635C40.5511 54.6981 39.6143 53.5296 39.6143 51.2072C39.6143 47.1532 41.1446 45.6071 41.3248 45.4439L42.8643 47.094L42.888 47.0716C42.8775 47.0821 41.8762 48.1716 41.8762 51.2085C41.8762 52.7388 42.4025 53.3928 43.0683 54.2218C43.7341 55.0507 44.5696 56.0902 44.5696 57.9416C44.5604 63.1246 42.5538 65.1865 42.3248 65.3983ZM47.7618 65.3983L46.2052 63.7641L46.1907 63.7772C46.2065 63.7615 47.7408 62.1456 47.7408 57.9363C47.7408 56.8837 47.346 56.381 46.7368 55.6297C45.9841 54.6928 45.0473 53.5244 45.0473 51.202C45.0473 47.1479 46.5776 45.6018 46.7578 45.4387L48.2974 47.0887L48.321 47.0663C48.3105 47.0769 47.3092 48.1664 47.3092 51.2033C47.3092 52.7336 47.8355 53.3875 48.5013 54.2165C49.1671 55.0455 50.0027 56.085 50.0027 57.9363C49.9974 63.1246 47.9908 65.1865 47.7618 65.3983Z" fill="#5E1235"/>
<path d="M27.289 23.6961C26.1678 22.5748 25.4129 21.1399 25.124 19.5808C24.835 18.0216 25.0256 16.4116 25.6705 14.963L28.943 18.2354C29.2069 18.4993 29.5207 18.7078 29.8662 18.849C30.2117 18.9901 30.5818 19.061 30.955 19.0575C31.3281 19.0539 31.6968 18.976 32.0395 18.8283C32.3823 18.6806 32.6921 18.4661 32.9509 18.1972C34.0247 17.0841 33.9418 15.2906 32.8483 14.1972L29.643 10.9918C31.0914 10.3471 32.7012 10.1566 34.26 10.4456C35.8189 10.7346 37.2535 11.4894 38.3745 12.6105C39.4956 13.7315 40.2504 15.1661 40.5394 16.725C40.8284 18.2838 40.6379 19.8937 39.9932 21.3421L47.05 28.3988C49.3197 25.1201 50.2794 21.1103 49.74 17.1592C49.2007 13.2082 47.2014 9.60229 44.136 7.05182C41.0706 4.50135 37.1613 3.19117 33.178 3.37936C29.1948 3.56755 25.4264 5.24046 22.6151 8.06858C19.8038 10.8967 18.1534 14.675 17.9889 18.6593C17.8245 22.6436 19.158 26.5451 21.7267 29.5952C24.2954 32.6454 27.9131 34.6231 31.8673 35.1388C35.8215 35.6546 39.8255 34.671 43.0907 32.3818L36.0221 25.3145C34.5735 25.9594 32.9634 26.15 31.4043 25.861C29.8451 25.5721 28.4103 24.8172 27.289 23.6961Z" fill="white"/>
<path d="M33.9299 36.4016C30.1102 36.4009 26.4009 35.1198 23.3948 32.7631C20.3887 30.4064 18.2593 27.1101 17.347 23.4009C16.4346 19.6916 16.7918 15.7837 18.3616 12.3014C19.9314 8.81907 22.6232 5.96347 26.0068 4.19086C29.3903 2.41826 33.2704 1.83097 37.027 2.52284C40.7836 3.21471 44.1999 5.14581 46.7299 8.00755C49.2599 10.8693 50.7577 14.4965 50.9839 18.3096C51.2101 22.1226 50.1516 25.9015 47.9776 29.0423C47.8836 29.1781 47.7609 29.2917 47.6181 29.3749C47.4753 29.4581 47.316 29.5089 47.1515 29.5237C46.9869 29.5385 46.8211 29.517 46.6657 29.4606C46.5104 29.4042 46.3694 29.3144 46.2526 29.1975L39.1932 22.1408C39.0318 21.9795 38.9232 21.773 38.8816 21.5487C38.84 21.3243 38.8674 21.0926 38.9603 20.8842C39.4512 19.7804 39.6351 18.5646 39.4925 17.365C39.3499 16.1654 38.8861 15.0266 38.1501 14.0686C37.4141 13.1107 36.4332 12.3692 35.3108 11.9224C34.1884 11.4756 32.9663 11.34 31.7733 11.53L33.6444 13.4011C35.1879 14.9446 35.2405 17.4473 33.7615 18.9815C33.3986 19.3582 32.9642 19.6588 32.4837 19.8657C32.0033 20.0727 31.4864 20.1818 30.9633 20.1867C30.4402 20.1916 29.9214 20.0922 29.4371 19.8943C28.9529 19.6964 28.5129 19.404 28.143 19.0341L26.2061 17.0972C26.0432 18.1439 26.1287 19.2141 26.4555 20.2216C26.7824 21.2291 27.3415 22.1457 28.0877 22.8974C29.0506 23.8526 30.2788 24.4956 31.6123 24.7428C32.9459 24.9899 34.323 24.8297 35.5642 24.2829C35.7731 24.1894 36.0056 24.1615 36.2307 24.2031C36.4559 24.2447 36.663 24.3538 36.8247 24.5158L43.8894 31.5818C44.0059 31.6981 44.0956 31.8385 44.152 31.9932C44.2085 32.1478 44.2304 32.313 44.2163 32.477C44.2021 32.641 44.1522 32.8 44.07 32.9427C43.9879 33.0853 43.8754 33.2083 43.7407 33.3029C40.8698 35.3259 37.442 36.4086 33.9299 36.4016ZM33.9299 4.48906C31.6581 4.48973 29.4168 5.01241 27.3791 6.01676C25.3413 7.0211 23.5616 8.48025 22.1773 10.2816C20.7929 12.0829 19.841 14.1782 19.395 16.4058C18.9489 18.6334 19.0207 20.9337 19.6048 23.1292C20.1889 25.3246 21.2696 27.3565 22.7635 29.068C24.2575 30.7795 26.1248 32.1249 28.2212 33.0002C30.3176 33.8755 32.5871 34.2574 34.8545 34.1164C37.122 33.9755 39.3267 33.3154 41.2985 32.1871L35.7458 26.633C34.1568 27.1713 32.4492 27.2563 30.8146 26.8784C29.18 26.5005 27.6831 25.6746 26.4916 24.4935C25.2154 23.2069 24.3562 21.5659 24.0259 19.784C23.6957 18.0022 23.9098 16.1622 24.6402 14.5038C24.7145 14.3363 24.8284 14.1895 24.9722 14.0759C25.1159 13.9624 25.2852 13.8856 25.4653 13.8522C25.6454 13.8187 25.8309 13.8297 26.0059 13.8841C26.1808 13.9385 26.3398 14.0346 26.4692 14.1643L29.7417 17.4367C29.8968 17.5929 30.0813 17.7167 30.2846 17.8012C30.4878 17.8857 30.7058 17.9291 30.9259 17.9288H30.9417C31.1652 17.9274 31.386 17.8811 31.5913 17.7927C31.7965 17.7044 31.9819 17.5757 32.1365 17.4144C32.7668 16.7564 32.7273 15.6748 32.0483 14.9959L28.8456 11.7905C28.716 11.6611 28.6198 11.5021 28.5654 11.3272C28.511 11.1523 28.5001 10.9667 28.5335 10.7866C28.5669 10.6065 28.6437 10.4373 28.7573 10.2935C28.8708 10.1497 29.0176 10.0358 29.1851 9.96155C30.7805 9.25092 32.5488 9.02167 34.2727 9.30193C35.9966 9.5822 37.6011 10.3598 38.8893 11.5392C40.1774 12.7187 41.0931 14.2486 41.5239 15.9412C41.9547 17.6338 41.8819 19.4153 41.3143 21.0671L46.85 26.6027C48.121 24.346 48.7789 21.7959 48.7584 19.206C48.7378 16.6161 48.0395 14.0767 46.7329 11.8404C45.4263 9.60418 43.5569 7.74903 41.3107 6.45953C39.0646 5.17003 36.5199 4.49113 33.9299 4.49037V4.48906Z" fill="#5E1235"/>
<path d="M47.05 28.4001L39.9932 21.3434C40.638 19.895 40.8284 18.2852 40.5394 16.7263C40.2504 15.1675 39.4956 13.7329 38.3746 12.6118C37.2535 11.4907 35.8189 10.7359 34.2601 10.447C32.7012 10.158 31.0914 10.3484 29.643 10.9931L32.8496 14.1998C33.9431 15.2932 34.026 17.0867 32.9523 18.1999C32.6934 18.4687 32.3836 18.6832 32.0409 18.8309C31.6982 18.9786 31.3295 19.0565 30.9563 19.0601C30.5831 19.0636 30.213 18.9928 29.8675 18.8516C29.5221 18.7105 29.2082 18.5019 28.9443 18.238L25.6718 14.963C25.0271 16.4114 24.8367 18.0212 25.1257 19.58C25.4146 21.1389 26.1695 22.5735 27.2905 23.6945C28.4116 24.8156 29.8462 25.5704 31.405 25.8594C32.9639 26.1484 34.5737 25.9579 36.0221 25.3132L43.0907 32.3818C44.6341 31.2975 45.9744 29.9497 47.05 28.4001Z" fill="#FFD150"/>
<path d="M43.092 33.5108C42.9436 33.511 42.7967 33.482 42.6597 33.4253C42.5226 33.3686 42.3981 33.2855 42.2933 33.1805L35.7457 26.633C34.094 27.2006 32.3124 27.2734 30.6199 26.8426C28.9273 26.4118 27.3973 25.4961 26.2179 24.208C25.0385 22.9198 24.2609 21.3153 23.9806 19.5914C23.7003 17.8674 23.9296 16.0992 24.6402 14.5038C24.7145 14.3363 24.8284 14.1895 24.9722 14.0759C25.1159 13.9624 25.2852 13.8856 25.4653 13.8522C25.6454 13.8187 25.8309 13.8297 26.0058 13.8841C26.1808 13.9385 26.3398 14.0346 26.4692 14.1643L29.7416 17.4367C29.8995 17.5945 30.0873 17.7192 30.2939 17.8037C30.5005 17.8881 30.7219 17.9305 30.9451 17.9284C31.1682 17.9263 31.3888 17.8798 31.5938 17.7915C31.7988 17.7033 31.9842 17.5751 32.1391 17.4144C32.7694 16.7565 32.7299 15.6749 32.0509 14.9959L28.8456 11.7906C28.7159 11.6611 28.6197 11.5021 28.5654 11.3272C28.511 11.1523 28.5 10.9667 28.5335 10.7866C28.5669 10.6065 28.6437 10.4373 28.7572 10.2935C28.8708 10.1498 29.0176 10.0358 29.1851 9.96156C30.7805 9.25093 32.5487 9.02168 34.2726 9.30195C35.9966 9.58221 37.6011 10.3598 38.8893 11.5392C40.1774 12.7187 41.0931 14.2486 41.5239 15.9412C41.9547 17.6338 41.8818 19.4153 41.3143 21.0671L47.85 27.6028C48.0374 27.7894 48.1532 28.0359 48.1773 28.2993C48.2013 28.5627 48.1321 28.8261 47.9816 29.0436C46.8314 30.7036 45.3965 32.147 43.7433 33.3068C43.5525 33.4406 43.3249 33.5118 43.092 33.5108ZM36.0221 24.1856C36.171 24.1849 36.3187 24.2137 36.4564 24.2704C36.5942 24.3271 36.7194 24.4105 36.8247 24.5159L43.2025 30.8936C44.0797 30.1916 44.8743 29.3921 45.571 28.5107L39.1932 22.1408C39.0318 21.9795 38.9231 21.773 38.8815 21.5487C38.84 21.3243 38.8674 21.0926 38.9603 20.8842C39.4512 19.7804 39.635 18.5646 39.4924 17.365C39.3498 16.1654 38.886 15.0266 38.1501 14.0687C37.4141 13.1107 36.4331 12.3692 35.3108 11.9224C34.1884 11.4756 32.9663 11.34 31.7733 11.53L33.6444 13.4011C35.1878 14.9446 35.2405 17.4473 33.7615 18.9815C33.3985 19.3582 32.9641 19.6588 32.4837 19.8658C32.0032 20.0727 31.4863 20.1818 30.9632 20.1867C30.4401 20.1916 29.9213 20.0922 29.4371 19.8943C28.9528 19.6964 28.5129 19.404 28.1429 19.0341L26.206 17.0973C26.0161 18.2902 26.1516 19.5124 26.5984 20.6348C27.0453 21.7571 27.7867 22.738 28.7447 23.474C29.7026 24.21 30.8414 24.6738 32.041 24.8164C33.2406 24.959 34.4564 24.7752 35.5602 24.2843C35.7055 24.2191 35.8629 24.1855 36.0221 24.1856Z" fill="#5E1235"/>
<path d="M18.4901 34.6293H7.75564C7.45639 34.6293 7.1694 34.5104 6.9578 34.2988C6.7462 34.0872 6.62732 33.8002 6.62732 33.5009C6.62732 33.2017 6.7462 32.9147 6.9578 32.7031C7.1694 32.4915 7.45639 32.3726 7.75564 32.3726H18.4901C18.7893 32.3726 19.0763 32.4915 19.2879 32.7031C19.4995 32.9147 19.6184 33.2017 19.6184 33.5009C19.6184 33.8002 19.4995 34.0872 19.2879 34.2988C19.0763 34.5104 18.7893 34.6293 18.4901 34.6293Z" fill="white"/>
</g>
<defs>
<clipPath id="clip0_0_4414">
<rect width="67.37" height="67.37" fill="white" transform="translate(0.244934 0.133667)"/>
</clipPath>
</defs>
</svg>
