<svg width="64" height="60" viewBox="0 0 64 60" fill="none" xmlns="http://www.w3.org/2000/svg">
<path d="M42.9844 17.8809L43.0171 58.9113C43.0171 59.4344 43.4412 59.8584 43.9643 59.8584H49.8958C50.0204 59.8585 50.1437 59.8341 50.2588 59.7865C50.3739 59.7389 50.4785 59.6691 50.5665 59.581C50.6546 59.4929 50.7244 59.3883 50.772 59.2733C50.8196 59.1582 50.8441 59.0348 50.8439 58.9103L50.8122 17.9037C52.4481 17.1478 53.8328 15.9385 54.8021 14.4194C55.7714 12.9002 56.2847 11.1349 56.2811 9.33288C56.2826 7.51778 55.7582 5.74113 54.7713 4.21778C53.7844 2.69444 52.3773 1.48966 50.7201 0.749146L50.7241 8.30846C50.7241 8.87417 50.2624 9.33684 49.6967 9.33783L44.0911 9.34278C43.956 9.34291 43.8223 9.31644 43.6975 9.26488C43.5727 9.21332 43.4592 9.13768 43.3636 9.04228C43.268 8.94687 43.1922 8.83358 43.1404 8.70886C43.0886 8.58414 43.0618 8.45044 43.0617 8.31539L43.0578 0.756081C41.3761 1.51091 39.9533 2.74326 38.9662 4.3C37.9791 5.85673 37.4712 7.66921 37.5057 9.5122C37.5691 13.174 39.8101 16.4028 42.9844 17.8809Z" fill="#70C1F9"/>
<path d="M0.516602 50.7307V36.16C0.516602 35.5973 0.976303 35.1376 1.53805 35.1376L22.8022 35.1128L24.219 33.6306C27.5399 30.1571 34.1808 27.3226 38.9819 27.3226H42.9924V32.0603L59.1731 32.0474C59.9904 32.0474 60.7305 32.3793 61.2675 32.9163C61.7478 33.3913 62.0514 34.0162 62.128 34.6874C62.2046 35.3586 62.0496 36.0358 61.6886 36.6068C61.4226 37.0387 61.0508 37.3956 60.6083 37.6435C60.1659 37.8914 59.6674 38.0223 59.1602 38.0236L60.8583 38.0117C61.6886 38.0117 62.4296 38.3436 62.9656 38.8934C63.5284 39.4413 63.8474 40.1953 63.8345 41.0384C63.8345 41.6001 63.668 42.1232 63.3877 42.57C63.1035 43.0025 62.7171 43.3582 62.2625 43.6055C61.808 43.8528 61.2995 43.9841 60.782 43.9878H58.2794C59.1087 43.9878 59.8498 44.3197 60.3857 44.8695C60.9485 45.4045 61.2804 46.1714 61.2546 47.0145C61.2546 47.5772 61.0882 48.1003 60.8078 48.5472C60.5267 48.9824 60.1408 49.3402 59.6856 49.5877C59.2304 49.8352 58.7203 49.9646 58.2022 49.9639H54.4225C55.2518 49.9639 56.0057 50.2968 56.5427 50.8457C57.1292 51.4332 57.474 52.2634 57.4106 53.1838C57.2828 54.7541 55.8521 55.9281 54.2561 55.941L36.7597 55.9539C33.3506 55.9539 30.0048 55.086 27.0416 53.4127L24.0535 51.7274L1.53805 51.7532C1.26721 51.7524 1.00771 51.6444 0.816294 51.4528C0.624877 51.2612 0.517124 51.0016 0.516602 50.7307Z" fill="#FFCBBA"/>
<path d="M60.8009 48.5472L46.4194 48.5601C46.2321 48.5598 46.0523 48.634 45.9196 48.7663C45.787 48.8986 45.7123 49.0782 45.712 49.2655C45.7118 49.4529 45.7859 49.6326 45.9182 49.7653C46.0505 49.898 46.2301 49.9726 46.4174 49.9729L58.2042 49.961C58.7205 49.9609 59.2286 49.8314 59.682 49.5845C60.1354 49.3375 60.5198 48.9809 60.7999 48.5472H60.8009ZM63.3778 42.5711L47.6747 42.587C47.4873 42.5867 47.3076 42.6609 47.1749 42.7932C47.0422 42.9254 46.9676 43.105 46.9673 43.2924C46.967 43.4797 47.0412 43.6595 47.1735 43.7922C47.3058 43.9248 47.4854 43.9995 47.6727 43.9998L60.7821 43.9859C61.2985 43.9857 61.8066 43.8561 62.2601 43.6089C62.7135 43.3618 63.0978 43.005 63.3778 42.5711ZM61.6976 36.6019L46.9752 36.6158C46.8825 36.6157 46.7906 36.6338 46.7048 36.6692C46.6191 36.7046 46.5411 36.7565 46.4754 36.822C46.4098 36.8875 46.3576 36.9653 46.322 37.051C46.2864 37.1366 46.268 37.2284 46.2678 37.3212C46.2677 37.414 46.2859 37.5059 46.3212 37.5916C46.3566 37.6774 46.4085 37.7553 46.474 37.821C46.5395 37.8867 46.6173 37.9388 46.703 37.9744C46.7886 38.0101 46.8805 38.0285 46.9732 38.0286L59.1563 38.0167C59.6653 38.0165 60.1657 37.8864 60.6104 37.6389C61.0551 37.3913 61.4293 37.0344 61.6976 36.6019Z" fill="#EFB7A8"/>
<path d="M19.3396 34.0845L1.54206 34.0934C0.977345 34.0934 0.521606 34.5511 0.521606 35.1148V51.7651C0.521606 52.3299 0.978335 52.7876 1.54206 52.7866L19.3129 52.7777C19.8786 52.7777 20.3383 52.319 20.3383 51.7532L20.3621 35.1079C20.3621 34.5432 19.9044 34.0845 19.3396 34.0845Z" fill="#E9E9FF"/>
<path d="M0.516619 53.5533V33.3245C0.516619 32.7627 0.97632 32.303 1.53807 32.303L16.3139 32.2902C17.157 32.2902 17.8466 32.9797 17.8466 33.8357L17.8218 53.0302C17.8218 53.8852 17.1322 54.5758 16.2762 54.5758H1.53807C1.40366 54.5764 1.27046 54.5504 1.14617 54.4993C1.02188 54.4481 0.908972 54.3728 0.813978 54.2777C0.718983 54.1826 0.64379 54.0696 0.592748 53.9453C0.541707 53.821 0.515831 53.6877 0.516619 53.5533Z" fill="#7BD681"/>
<path d="M14.1749 36.5028C14.8436 36.5028 15.3856 35.9607 15.3856 35.2921C15.3856 34.6235 14.8436 34.0814 14.1749 34.0814C13.5063 34.0814 12.9642 34.6235 12.9642 35.2921C12.9642 35.9607 13.5063 36.5028 14.1749 36.5028Z" fill="#74C579"/>
<g opacity="0.2">
<path d="M44.7113 59.8603H43.9683C43.716 59.8603 43.4741 59.7601 43.2957 59.5818C43.1174 59.4034 43.0172 59.1615 43.0172 58.9092V55.9469L36.7557 55.9568C33.4368 55.9568 30.1772 55.1246 27.2645 53.5295L21.0724 35.1118H22.8062L24.2229 33.6356C26.4917 31.2578 30.2961 29.1872 34.0213 28.1073L44.7113 59.8603ZM51.6564 55.937H50.844V58.9092C50.844 59.4343 50.418 59.8603 49.8929 59.8603H48.6446L37.7167 27.3939C38.1527 27.3444 38.5787 27.3246 38.9849 27.3246H42.0363L42.9875 30.1482L42.9974 30.168L51.6564 55.937Z" fill="white"/>
</g>
</svg>
