<svg width="68" height="68" viewBox="0 0 68 68" fill="none" xmlns="http://www.w3.org/2000/svg">
<path d="M42.4923 48.0816C41.4884 48.489 40.6272 49.1837 40.0166 50.0786C39.406 50.9735 39.0732 52.0288 39.0599 53.112C37.9277 53.4524 36.9354 54.1485 36.2299 55.0972C35.5245 56.0459 35.1435 57.1966 35.1435 58.3788C35.1423 59.1427 35.302 59.8983 35.6122 60.5963C35.9224 61.2944 36.3763 61.9192 36.9441 62.4302C31.1822 67.2918 21.9653 67.1455 14.4703 65.2774C4.22932 62.7228 1.75348 57.5685 1.15703 55.2278C1.12179 55.0756 1.11879 54.9178 1.14822 54.7645C1.17765 54.6111 1.23885 54.4657 1.3279 54.3374C1.41694 54.2091 1.53185 54.1009 1.66523 54.0197C1.79862 53.9386 1.94752 53.8862 2.10235 53.866C21.4814 50.9288 27.2208 42.3759 28.6726 39.3486C29.2247 40.2171 29.9675 40.9484 30.8446 41.4869C32.4159 42.4558 34.2453 42.923 36.0888 42.8261C38.0853 42.8182 40.0614 42.4097 41.8958 41.6219C42.2672 43.7556 42.4664 45.9164 42.4923 48.0816Z" fill="#FFDC00"/>
<path d="M41.8958 41.6219C40.8706 42.0957 39.7801 42.4176 38.6626 42.5763C38.9406 44.3994 39.0902 46.2383 39.1128 48.0816C38.1089 48.4891 37.2477 49.1838 36.6371 50.0787C36.0265 50.9736 35.6937 52.0288 35.6803 53.1121C34.5482 53.4524 33.5558 54.1486 32.8504 55.0972C32.145 56.0459 31.764 57.1967 31.764 58.3789C31.7627 59.1428 31.9224 59.8983 32.2327 60.5964C32.5429 61.2944 32.9968 61.9193 33.5646 62.4302C30.2658 64.9818 26.2244 66.3869 22.0542 66.4321C27.5281 66.7179 33.0301 65.7299 36.9408 62.4302C36.3729 61.9193 35.9191 61.2944 35.6088 60.5964C35.2986 59.8983 35.1389 59.1428 35.1402 58.3789C35.1402 57.1967 35.5211 56.0459 36.2266 55.0972C36.932 54.1486 37.9243 53.4524 39.0565 53.1121C39.0698 52.0288 39.4026 50.9736 40.0132 50.0787C40.6238 49.1838 41.4851 48.4891 42.4889 48.0816C42.4636 45.916 42.2653 43.7559 41.8958 41.6219Z" fill="#FEC108"/>
<path d="M41.8958 41.6219C40.0614 42.4097 38.0853 42.8182 36.0888 42.8261C34.2453 42.923 32.4159 42.4558 30.8446 41.4868C29.9675 40.9484 29.2247 40.2171 28.6726 39.3486C28.7401 39.2023 28.7964 39.0673 28.8526 38.9435C29.4325 37.3956 30.5513 36.1089 32.0037 35.3198C32.3832 35.131 32.7836 34.9875 33.1966 34.8921C34.4555 34.6338 35.7626 34.7512 36.9554 35.2297C37.5678 35.4614 38.1439 35.7798 38.666 36.1751C40.3817 37.4594 41.5317 39.3598 41.8733 41.4756C41.8845 41.5206 41.8845 41.5769 41.8958 41.6219Z" fill="#FF9801"/>
<path d="M66.2378 58.3338C66.2393 59.4443 65.9416 60.5346 65.376 61.4902C64.8105 62.4459 63.998 63.2316 63.0238 63.7647C62.0497 64.2978 60.95 64.5587 59.8402 64.5199C58.7304 64.4811 57.6516 64.1441 56.7171 63.5443C55.895 64.5159 54.8627 65.2877 53.6983 65.8014C52.534 66.3152 51.268 66.5574 49.9962 66.5097C48.7244 66.4619 47.4801 66.1256 46.3575 65.5261C45.2349 64.9266 44.2633 64.0795 43.5164 63.0491C42.6513 63.5859 41.6535 63.8705 40.6354 63.8707C39.1807 63.8647 37.7872 63.2842 36.7586 62.2556C35.73 61.227 35.1494 59.8335 35.1435 58.3788C35.1435 57.1966 35.5245 56.0459 36.2299 55.0972C36.9354 54.1485 37.9277 53.4524 39.0598 53.112C39.0732 52.0288 39.406 50.9735 40.0166 50.0786C40.6272 49.1837 41.4884 48.489 42.4923 48.0816C43.3756 47.7214 44.3378 47.5984 45.2833 47.7247C46.2289 47.8511 47.125 48.2224 47.8828 48.8018C48.7905 47.7236 49.985 46.9246 51.3281 46.4973C52.6711 46.0701 54.1078 46.0321 55.4715 46.3878C56.8353 46.7434 58.0704 47.4782 59.0338 48.5069C59.9971 49.5357 60.6493 50.8163 60.9147 52.2005C62.3907 52.413 63.7409 53.1497 64.7184 54.2759C65.6958 55.4021 66.2352 56.8426 66.2378 58.3338Z" fill="#7F8E94"/>
<path d="M60.9147 52.2005C60.7269 51.2102 60.3399 50.2684 59.7772 49.432C59.2146 48.5957 58.4879 47.8824 57.6414 47.3352C56.7949 46.788 55.8461 46.4185 54.8525 46.2489C53.8589 46.0793 52.8412 46.1132 51.8611 46.3485C53.0787 46.6262 54.2076 47.2042 55.1448 48.0297C56.082 48.8553 56.7978 49.9022 57.2269 51.0751C57.4745 51.7391 58.0101 52.2557 58.6831 52.4774C59.9286 52.9066 61.0046 53.7219 61.7547 54.8048C62.5048 55.8877 62.8898 57.1817 62.8538 58.4985C62.8177 59.8153 62.3625 61.0863 61.5544 62.1266C60.7462 63.1669 59.6272 63.9222 58.3601 64.2826C59.4387 64.598 60.5846 64.6015 61.6651 64.2926C62.7456 63.9837 63.7165 63.375 64.4653 62.5371C65.4535 61.547 66.0717 60.2474 66.2164 58.856C66.3469 57.28 65.8709 55.7137 64.8856 54.4767C63.9003 53.2398 62.48 52.4257 60.9147 52.2005Z" fill="#545C60"/>
<path d="M62.299 41.6444C63.8528 41.6444 65.1124 40.3848 65.1124 38.831C65.1124 37.2771 63.8528 36.0175 62.299 36.0175C60.7452 36.0175 59.4855 37.2771 59.4855 38.831C59.4855 40.3848 60.7452 41.6444 62.299 41.6444Z" fill="#7F8E94"/>
<path d="M54.984 33.7668C56.227 33.7668 57.2347 32.7591 57.2347 31.516C57.2347 30.273 56.227 29.2653 54.984 29.2653C53.7409 29.2653 52.7332 30.273 52.7332 31.516C52.7332 32.7591 53.7409 33.7668 54.984 33.7668Z" fill="#7F8E94"/>
<path d="M7.718 25.8891C7.41953 25.8891 7.13328 25.7705 6.92223 25.5595C6.71118 25.3484 6.59262 25.0622 6.59262 24.7637V22.513C6.59262 22.2145 6.71118 21.9282 6.92223 21.7172C7.13328 21.5061 7.41953 21.3876 7.718 21.3876C8.01647 21.3876 8.30271 21.5061 8.51376 21.7172C8.72481 21.9282 8.84338 22.2145 8.84338 22.513V24.7637C8.84338 25.0622 8.72481 25.3484 8.51376 25.5595C8.30271 25.7705 8.01647 25.8891 7.718 25.8891ZM7.718 32.6414C7.41953 32.6414 7.13328 32.5228 6.92223 32.3118C6.71118 32.1007 6.59262 31.8145 6.59262 31.516V29.2652C6.59262 28.9668 6.71118 28.6805 6.92223 28.4695C7.13328 28.2584 7.41953 28.1399 7.718 28.1399C8.01647 28.1399 8.30271 28.2584 8.51376 28.4695C8.72481 28.6805 8.84338 28.9668 8.84338 29.2652V31.516C8.84338 31.8145 8.72481 32.1007 8.51376 32.3118C8.30271 32.5228 8.01647 32.6414 7.718 32.6414ZM5.46724 28.1399H3.21648C2.91801 28.1399 2.63176 28.0213 2.42071 27.8102C2.20966 27.5992 2.09109 27.3129 2.09109 27.0145C2.09109 26.716 2.20966 26.4298 2.42071 26.2187C2.63176 26.0077 2.91801 25.8891 3.21648 25.8891H5.46724C5.76571 25.8891 6.05195 26.0077 6.263 26.2187C6.47405 26.4298 6.59262 26.716 6.59262 27.0145C6.59262 27.3129 6.47405 27.5992 6.263 27.8102C6.05195 28.0213 5.76571 28.1399 5.46724 28.1399ZM12.2195 28.1399H9.96876C9.67029 28.1399 9.38405 28.0213 9.173 27.8102C8.96195 27.5992 8.84338 27.3129 8.84338 27.0145C8.84338 26.716 8.96195 26.4298 9.173 26.2187C9.38405 26.0077 9.67029 25.8891 9.96876 25.8891H12.2195C12.518 25.8891 12.8042 26.0077 13.0153 26.2187C13.2263 26.4298 13.3449 26.716 13.3449 27.0145C13.3449 27.3129 13.2263 27.5992 13.0153 27.8102C12.8042 28.0213 12.518 28.1399 12.2195 28.1399Z" fill="#EF314C"/>
<path d="M11.0941 43.8952C10.8716 43.8951 10.6541 43.8291 10.469 43.7054C10.284 43.5818 10.1398 43.406 10.0546 43.2004C9.96949 42.9948 9.9472 42.7686 9.99061 42.5503C10.034 42.332 10.1412 42.1315 10.2985 41.9741L11.9866 40.2861C12.1988 40.0811 12.4831 39.9676 12.7782 39.9702C13.0732 39.9728 13.3555 40.0911 13.5641 40.2998C13.7728 40.5084 13.8912 40.7907 13.8937 41.0858C13.8963 41.3808 13.7828 41.6651 13.5778 41.8774L11.8898 43.5654C11.6788 43.7765 11.3926 43.8951 11.0941 43.8952ZM16.1583 38.8309C15.9358 38.8309 15.7183 38.7649 15.5332 38.6412C15.3482 38.5176 15.204 38.3418 15.1189 38.1362C15.0337 37.9306 15.0114 37.7044 15.0548 37.4861C15.0982 37.2678 15.2054 37.0673 15.3627 36.9099L17.0508 35.2219C17.263 35.0169 17.5473 34.9034 17.8424 34.906C18.1374 34.9086 18.4197 35.0269 18.6284 35.2356C18.837 35.4442 18.9554 35.7265 18.9579 36.0215C18.9605 36.3166 18.8471 36.6009 18.6421 36.8131L16.954 38.5012C16.743 38.7123 16.4568 38.8309 16.1583 38.8309ZM17.8464 43.8952C17.548 43.8951 17.2618 43.7765 17.0508 43.5654L15.3627 41.8774C15.1577 41.6651 15.0443 41.3808 15.0468 41.0858C15.0494 40.7907 15.1678 40.5084 15.3764 40.2998C15.5851 40.0911 15.8673 39.9728 16.1624 39.9702C16.4575 39.9676 16.7417 40.0811 16.954 40.2861L18.6421 41.9741C18.7994 42.1315 18.9065 42.332 18.9499 42.5503C18.9934 42.7686 18.9711 42.9948 18.8859 43.2004C18.8007 43.406 18.6565 43.5818 18.4715 43.7054C18.2865 43.8291 18.069 43.8951 17.8464 43.8952ZM12.7822 38.8309C12.4838 38.8309 12.1976 38.7123 11.9866 38.5012L10.2985 36.8131C10.0935 36.6009 9.98006 36.3166 9.98263 36.0215C9.98519 35.7265 10.1035 35.4442 10.3122 35.2356C10.5209 35.0269 10.8031 34.9086 11.0982 34.906C11.3933 34.9034 11.6775 35.0169 11.8898 35.2219L13.5778 36.9099C13.7352 37.0673 13.8423 37.2678 13.8857 37.4861C13.9291 37.7044 13.9069 37.9306 13.8217 38.1362C13.7365 38.3418 13.5923 38.5176 13.4073 38.6412C13.2223 38.7649 13.0048 38.8309 12.7822 38.8309Z" fill="#02A9F4"/>
<path d="M56.4976 54.1756C56.2361 54.1756 55.9827 54.0845 55.781 53.9179C55.5793 53.7513 55.4419 53.5197 55.3925 53.2629C55.327 52.9222 55.1663 52.607 54.9291 52.3539C54.6919 52.1007 54.3878 51.9199 54.0521 51.8324C53.7164 51.745 53.3628 51.7543 53.0322 51.8595C52.7016 51.9647 52.4075 52.1613 52.1841 52.4267C52.0887 52.5398 51.9721 52.6329 51.8407 52.7009C51.7094 52.7689 51.566 52.8103 51.4186 52.8229C51.2713 52.8354 51.1229 52.8188 50.982 52.774C50.841 52.7292 50.7103 52.6571 50.5973 52.5618C50.4842 52.4664 50.391 52.3498 50.3231 52.2184C50.2551 52.0871 50.2136 51.9437 50.2011 51.7963C50.1886 51.649 50.2052 51.5006 50.25 51.3597C50.2948 51.2188 50.3669 51.088 50.4622 50.975C50.96 50.3849 51.6147 49.9477 52.3505 49.714C53.0863 49.4804 53.8732 49.4598 54.6203 49.6546C55.3673 49.8494 56.044 50.2517 56.5719 50.815C57.0999 51.3782 57.4577 52.0794 57.6039 52.8375C57.6352 53.0004 57.6302 53.1682 57.5891 53.329C57.548 53.4897 57.4718 53.6394 57.3661 53.7672C57.2604 53.8951 57.1277 53.998 56.9776 54.0686C56.8274 54.1392 56.6635 54.1757 56.4976 54.1756Z" fill="#F5F5F5"/>
<path d="M7.718 25.8891C7.41953 25.8891 7.13328 25.7705 6.92223 25.5595C6.71118 25.3484 6.59262 25.0622 6.59262 24.7637V22.513C6.59262 22.2145 6.71118 21.9282 6.92223 21.7172C7.13328 21.5061 7.41953 21.3876 7.718 21.3876C8.01647 21.3876 8.30271 21.5061 8.51376 21.7172C8.72481 21.9282 8.84338 22.2145 8.84338 22.513V24.7637C8.84338 25.0622 8.72481 25.3484 8.51376 25.5595C8.30271 25.7705 8.01647 25.8891 7.718 25.8891ZM7.718 32.6414C7.41953 32.6414 7.13328 32.5228 6.92223 32.3118C6.71118 32.1007 6.59262 31.8145 6.59262 31.516V29.2652C6.59262 28.9668 6.71118 28.6805 6.92223 28.4695C7.13328 28.2584 7.41953 28.1399 7.718 28.1399C8.01647 28.1399 8.30271 28.2584 8.51376 28.4695C8.72481 28.6805 8.84338 28.9668 8.84338 29.2652V31.516C8.84338 31.8145 8.72481 32.1007 8.51376 32.3118C8.30271 32.5228 8.01647 32.6414 7.718 32.6414ZM5.46724 28.1399H3.21648C2.91801 28.1399 2.63176 28.0213 2.42071 27.8102C2.20966 27.5992 2.09109 27.3129 2.09109 27.0145C2.09109 26.716 2.20966 26.4298 2.42071 26.2187C2.63176 26.0077 2.91801 25.8891 3.21648 25.8891H5.46724C5.76571 25.8891 6.05195 26.0077 6.263 26.2187C6.47405 26.4298 6.59262 26.716 6.59262 27.0145C6.59262 27.3129 6.47405 27.5992 6.263 27.8102C6.05195 28.0213 5.76571 28.1399 5.46724 28.1399ZM12.2195 28.1399H9.96876C9.67029 28.1399 9.38405 28.0213 9.173 27.8102C8.96195 27.5992 8.84338 27.3129 8.84338 27.0145C8.84338 26.716 8.96195 26.4298 9.173 26.2187C9.38405 26.0077 9.67029 25.8891 9.96876 25.8891H12.2195C12.518 25.8891 12.8042 26.0077 13.0153 26.2187C13.2263 26.4298 13.3449 26.716 13.3449 27.0145C13.3449 27.3129 13.2263 27.5992 13.0153 27.8102C12.8042 28.0213 12.518 28.1399 12.2195 28.1399Z" fill="#EF314C"/>
<path d="M11.0941 43.8952C10.8716 43.8951 10.6541 43.8291 10.469 43.7054C10.284 43.5818 10.1398 43.406 10.0546 43.2004C9.96949 42.9948 9.9472 42.7686 9.99061 42.5503C10.034 42.332 10.1412 42.1315 10.2985 41.9741L11.9866 40.2861C12.1988 40.0811 12.4831 39.9676 12.7782 39.9702C13.0732 39.9728 13.3555 40.0911 13.5641 40.2998C13.7728 40.5084 13.8912 40.7907 13.8937 41.0858C13.8963 41.3808 13.7828 41.6651 13.5778 41.8774L11.8898 43.5654C11.6788 43.7765 11.3926 43.8951 11.0941 43.8952ZM16.1583 38.8309C15.9358 38.8309 15.7183 38.7649 15.5332 38.6412C15.3482 38.5176 15.204 38.3418 15.1189 38.1362C15.0337 37.9306 15.0114 37.7044 15.0548 37.4861C15.0982 37.2678 15.2054 37.0673 15.3627 36.9099L17.0508 35.2219C17.263 35.0169 17.5473 34.9034 17.8424 34.906C18.1374 34.9086 18.4197 35.0269 18.6284 35.2356C18.837 35.4442 18.9554 35.7265 18.9579 36.0215C18.9605 36.3166 18.8471 36.6009 18.6421 36.8131L16.954 38.5012C16.743 38.7123 16.4568 38.8309 16.1583 38.8309ZM17.8464 43.8952C17.548 43.8951 17.2618 43.7765 17.0508 43.5654L15.3627 41.8774C15.1577 41.6651 15.0443 41.3808 15.0468 41.0858C15.0494 40.7907 15.1678 40.5084 15.3764 40.2998C15.5851 40.0911 15.8673 39.9728 16.1624 39.9702C16.4575 39.9676 16.7417 40.0811 16.954 40.2861L18.6421 41.9741C18.7994 42.1315 18.9065 42.332 18.9499 42.5503C18.9934 42.7686 18.9711 42.9948 18.8859 43.2004C18.8007 43.406 18.6565 43.5818 18.4715 43.7054C18.2865 43.8291 18.069 43.8951 17.8464 43.8952ZM12.7822 38.8309C12.4838 38.8309 12.1976 38.7123 11.9866 38.5012L10.2985 36.8131C10.0935 36.6009 9.98006 36.3166 9.98263 36.0215C9.98519 35.7265 10.1035 35.4442 10.3122 35.2356C10.5209 35.0269 10.8031 34.9086 11.0982 34.906C11.3933 34.9034 11.6775 35.0169 11.8898 35.2219L13.5778 36.9099C13.7352 37.0673 13.8423 37.2678 13.8857 37.4861C13.9291 37.7044 13.9069 37.9306 13.8217 38.1362C13.7365 38.3418 13.5923 38.5176 13.4073 38.6412C13.2223 38.7649 13.0048 38.8309 12.7822 38.8309Z" fill="#02A9F4"/>
<path d="M61.8488 51.2372C61.4422 49.8228 60.679 48.5367 59.6324 47.502C58.5859 46.4674 57.2911 45.719 55.8722 45.3285C54.4532 44.9381 52.9578 44.9188 51.5293 45.2724C50.1007 45.626 48.787 46.3406 47.714 47.3479C46.4567 46.6489 44.9981 46.4011 43.5805 46.6456C43.4891 44.8495 43.291 43.0603 42.9874 41.2877C42.6279 39.1392 41.5389 37.1802 39.9039 35.7407L45.9055 4.69369C46.0072 4.19009 46.0077 3.67133 45.9073 3.1675C45.8068 2.66368 45.6073 2.18481 45.3204 1.7587C44.8887 1.10782 44.2729 0.600256 43.5516 0.300706C42.8303 0.00115487 42.0362 -0.0768075 41.2704 0.0767581C40.5046 0.230324 39.8019 0.60846 39.2519 1.16296C38.7019 1.71745 38.3294 2.42319 38.1821 3.19018L32.2175 34.0121C31.9733 34.0976 31.7336 34.1967 31.5007 34.3103C29.8004 35.2095 28.4885 36.7004 27.8128 38.5012C26.7032 41.0896 21.5591 49.7776 1.94255 52.7508C1.62875 52.7945 1.32756 52.9034 1.05835 53.0705C0.78914 53.2376 0.557868 53.4591 0.379399 53.7209C0.205076 53.9799 0.0870543 54.2725 0.0329686 54.58C-0.0211171 54.8874 -0.0100622 55.2028 0.065418 55.5057C0.502423 57.09 1.28363 58.5582 2.35332 59.8058C2.42422 59.933 2.51987 60.0455 2.63354 60.1367C4.67776 62.3246 7.20836 64.0004 10.0205 65.0287C10.0509 65.0411 10.0791 65.0557 10.1106 65.0658C11.4419 65.5903 12.807 66.0258 14.1968 66.369C16.6535 66.9767 19.1598 67.3639 21.6851 67.5282C21.7301 67.5372 21.7751 67.5439 21.8213 67.5473C21.8337 67.5473 21.846 67.5394 21.8573 67.5394C22.5213 67.5777 23.1954 67.6047 23.883 67.6047C28.2416 67.6047 33.0492 66.7258 36.9093 63.8493C37.8235 64.4729 38.8799 64.8563 39.9813 64.9643C41.0827 65.0723 42.1935 64.9013 43.2114 64.4671C44.0665 65.423 45.1061 66.1961 46.2677 66.7399C47.4292 67.2837 48.6888 67.587 49.9705 67.6316C51.2523 67.6761 52.5299 67.461 53.7264 66.9992C54.9229 66.5374 56.0137 65.8385 56.9332 64.9443C57.8557 65.3795 58.859 65.617 59.8788 65.6415C60.8985 65.666 61.9121 65.4769 62.8544 65.0864C63.7968 64.6959 64.647 64.1127 65.3506 63.3742C66.0542 62.6356 66.5955 61.7581 66.9399 60.7979C67.2842 59.8378 67.4239 58.8162 67.35 57.7988C67.2762 56.7815 66.9903 55.7908 66.5109 54.8905C66.0315 53.9901 65.369 53.2 64.5662 52.5709C63.7633 51.9417 62.8377 51.4874 61.8488 51.2372ZM40.3923 3.6167C40.4774 3.18051 40.7312 2.7955 41.0984 2.5452C41.4656 2.2949 41.9167 2.19952 42.3538 2.27975C42.8018 2.3664 43.1956 2.62861 43.4488 3.00787C43.6964 3.37474 43.7853 3.82602 43.6976 4.25929L37.8625 34.4195C37.6925 34.3396 37.5248 34.2484 37.3527 34.1809C36.4693 33.8419 35.5336 33.6591 34.5876 33.6407L40.3923 3.6167ZM32.4989 36.3304C33.1327 36.0377 33.8211 35.8818 34.5192 35.8731C35.2173 35.8644 35.9093 36.003 36.5503 36.2797C37.5401 36.6869 38.421 37.3198 39.1227 38.1279C39.8244 38.9361 40.3274 39.8971 40.5915 40.9343C39.1285 41.4205 37.598 41.6793 36.0562 41.7007C34.4428 41.795 32.8394 41.3907 31.4635 40.5427C30.8998 40.1875 30.3954 39.7459 29.969 39.2339C30.4446 37.9986 31.3404 36.9705 32.4989 36.3304ZM14.1653 64.026C20.1793 61.9688 27.0678 58.4261 31.1586 52.4053C31.321 52.1584 31.3797 51.8575 31.3222 51.5677C31.2646 51.2778 31.0953 51.0222 30.8509 50.8561C30.6064 50.69 30.3065 50.6267 30.0158 50.6799C29.7251 50.7331 29.467 50.8985 29.2972 51.1404C24.8744 57.6507 16.7211 61.0662 10.5157 62.8016C8.79618 62.1208 7.18763 61.1878 5.74296 60.0332C10.1353 59.4037 14.4018 58.0891 18.3866 56.1371C18.5183 56.0674 18.6348 55.9723 18.7295 55.8573C18.8241 55.7422 18.895 55.6096 18.9379 55.4669C18.9809 55.3243 18.9951 55.1746 18.9798 55.0264C18.9644 54.8782 18.9198 54.7346 18.8485 54.6038C18.7773 54.473 18.6807 54.3576 18.5645 54.2644C18.4483 54.1712 18.3148 54.102 18.1716 54.0608C18.0285 54.0196 17.8786 54.0073 17.7306 54.0244C17.5826 54.0416 17.4395 54.088 17.3096 54.1609C13.1964 56.4049 7.332 57.5461 3.82306 58.0626C3.10027 57.1516 2.57174 56.1022 2.27004 54.9791C19.566 52.3558 26.3532 45.2828 28.847 41.3316C29.2724 41.7412 29.7361 42.1092 30.2335 42.4299C31.8848 43.4626 33.8006 43.9931 35.7479 43.9571C35.875 43.9571 36.0011 43.9571 36.1294 43.9503C37.7782 43.9226 39.4152 43.6658 40.9933 43.1873C41.188 44.5873 41.3061 45.9974 41.3478 47.4098C40.4461 47.9099 39.6733 48.6132 39.0906 49.4639C38.5079 50.3146 38.1313 51.2893 37.9908 52.3108C36.8129 52.8307 35.8106 53.6804 35.1049 54.7574C34.3992 55.8343 34.0202 57.0924 34.0137 58.38C34.0151 59.7784 34.4621 61.1399 35.2898 62.267C32.5459 64.0875 29.36 65.1306 26.0707 65.2853C27.9803 64.024 29.7019 62.499 31.1844 60.7556C31.3758 60.5263 31.4681 60.2303 31.4412 59.9328C31.4143 59.6353 31.2703 59.3607 31.041 59.1694C30.8116 58.9781 30.5156 58.8857 30.2181 58.9126C29.9207 58.9396 29.6461 59.0835 29.4547 59.3129C27.2688 61.8203 24.5899 63.8507 21.585 65.2774C19.2772 65.1075 16.9882 64.7412 14.7426 64.1824C14.5412 64.1352 14.3578 64.0778 14.1653 64.026ZM60.0471 63.3947C59.0813 63.3934 58.1362 63.1154 57.3237 62.5934C57.0946 62.4469 56.8202 62.3883 56.5513 62.4284C56.2823 62.4686 56.037 62.6047 55.8607 62.8117C55.1496 63.6539 54.2561 64.3233 53.248 64.7691C52.2399 65.2149 51.1436 65.4255 50.0421 65.3848C48.9406 65.3441 47.8627 65.0533 46.8902 64.5344C45.9178 64.0155 45.0761 63.2821 44.4291 62.3897C44.2622 62.1599 44.0146 62.0017 43.736 61.9468C43.4573 61.8919 43.1682 61.9444 42.9267 62.0937C42.3974 62.421 41.8043 62.6314 41.1871 62.7108C40.57 62.7903 39.9429 62.7369 39.348 62.5543C38.7532 62.3717 38.2042 62.0641 37.7378 61.6521C37.2715 61.2401 36.8986 60.7332 36.644 60.1654C36.3895 59.5976 36.2593 58.9819 36.262 58.3596C36.2648 57.7374 36.4005 57.1229 36.66 56.5573C36.9196 55.9917 37.297 55.4882 37.7669 55.0803C38.2369 54.6724 38.7886 54.3697 39.3851 54.1924C39.615 54.1236 39.8169 53.983 39.9612 53.7913C40.1056 53.5995 40.1849 53.3667 40.1875 53.1267C40.2052 51.9779 40.6726 50.8818 41.4894 50.0739C42.3062 49.2659 43.4073 48.8104 44.5562 48.8052C45.512 48.8009 46.4423 49.1131 47.202 49.6932C47.4319 49.8679 47.7201 49.9475 48.0071 49.9157C48.294 49.8839 48.5578 49.7429 48.7438 49.5221C49.5153 48.6072 50.5302 47.9294 51.6708 47.5672C52.8115 47.2051 54.0315 47.1732 55.1895 47.4755C56.3475 47.7777 57.3963 48.4016 58.2145 49.275C59.0327 50.1484 59.5869 51.2357 59.813 52.4109C59.8576 52.6411 59.9731 52.8517 60.1431 53.0131C60.3132 53.1745 60.5295 53.2787 60.7617 53.3113C62.0334 53.4883 63.1904 54.1417 63.9986 55.1394C64.8067 56.1371 65.2058 57.4045 65.115 58.6852C65.0242 59.966 64.4503 61.1644 63.5095 62.0381C62.5686 62.9117 61.331 63.3954 60.0471 63.3913V63.3947Z" fill="black"/>
<path d="M62.299 42.7698C63.3436 42.7698 64.3455 42.3548 65.0841 41.6161C65.8228 40.8775 66.2378 39.8756 66.2378 38.831C66.2378 37.7863 65.8228 36.7845 65.0841 36.0458C64.3455 35.3071 63.3436 34.8921 62.299 34.8921C61.2543 34.8921 60.2525 35.3071 59.5138 36.0458C58.7751 36.7845 58.3601 37.7863 58.3601 38.831C58.3601 39.8756 58.7751 40.8775 59.5138 41.6161C60.2525 42.3548 61.2543 42.7698 62.299 42.7698ZM62.299 37.1429C62.7467 37.1429 63.176 37.3207 63.4926 37.6373C63.8092 37.9539 63.987 38.3833 63.987 38.831C63.987 39.2787 63.8092 39.708 63.4926 40.0246C63.176 40.3412 62.7467 40.519 62.299 40.519C61.8513 40.519 61.4219 40.3412 61.1053 40.0246C60.7887 39.708 60.6109 39.2787 60.6109 38.831C60.6109 38.3833 60.7887 37.9539 61.1053 37.6373C61.4219 37.3207 61.8513 37.1429 62.299 37.1429ZM54.984 34.8921C55.8794 34.8921 56.7381 34.5364 57.3713 33.9033C58.0044 33.2701 58.3601 32.4114 58.3601 31.516C58.3601 30.6206 58.0044 29.7618 57.3713 29.1287C56.7381 28.4955 55.8794 28.1398 54.984 28.1398C54.0886 28.1398 53.2299 28.4955 52.5967 29.1287C51.9636 29.7618 51.6079 30.6206 51.6079 31.516C51.6079 32.4114 51.9636 33.2701 52.5967 33.9033C53.2299 34.5364 54.0886 34.8921 54.984 34.8921ZM54.984 30.3906C55.2825 30.3906 55.5687 30.5092 55.7798 30.7202C55.9908 30.9313 56.1094 31.2175 56.1094 31.516C56.1094 31.8145 55.9908 32.1007 55.7798 32.3117C55.5687 32.5228 55.2825 32.6414 54.984 32.6414C54.6855 32.6414 54.3993 32.5228 54.1882 32.3117C53.9772 32.1007 53.8586 31.8145 53.8586 31.516C53.8586 31.2175 53.9772 30.9313 54.1882 30.7202C54.3993 30.5092 54.6855 30.3906 54.984 30.3906ZM13.1491 11.3402L32.2806 14.7163C32.5713 14.7611 32.8681 14.6903 33.1072 14.519C33.3464 14.3477 33.509 14.0896 33.5602 13.7999C33.6114 13.5102 33.5471 13.212 33.3812 12.9691C33.2152 12.7262 32.9607 12.558 32.6722 12.5004L13.5407 9.12428C13.25 9.07947 12.9532 9.15028 12.7141 9.32156C12.4749 9.49285 12.3123 9.75097 12.2611 10.0407C12.2099 10.3304 12.2741 10.6286 12.4401 10.8715C12.6061 11.1144 12.8606 11.2826 13.1491 11.3402ZM32.4584 19.4305C32.5101 19.1369 32.4431 18.8347 32.2722 18.5903C32.1013 18.346 31.8404 18.1795 31.5468 18.1273L19.3488 15.9734C19.2032 15.9476 19.054 15.9508 18.9097 15.9828C18.7654 16.0147 18.6287 16.0748 18.5076 16.1596C18.3865 16.2443 18.2833 16.3521 18.2038 16.4767C18.1243 16.6014 18.0702 16.7405 18.0445 16.886C18.0188 17.0316 18.022 17.1808 18.0539 17.3251C18.0859 17.4695 18.146 17.6061 18.2307 17.7272C18.3155 17.8483 18.4232 17.9516 18.5479 18.031C18.6725 18.1105 18.8116 18.1646 18.9572 18.1904L31.1552 20.3432C31.449 20.3949 31.7513 20.3278 31.9957 20.1566C32.2401 19.9855 32.4065 19.7243 32.4584 19.4305ZM30.4214 23.6552L15.6722 21.0499C15.5266 21.0243 15.3774 21.0276 15.2331 21.0596C15.0888 21.0916 14.9522 21.1517 14.8312 21.2365C14.7101 21.3214 14.6069 21.4292 14.5275 21.5538C14.4481 21.6785 14.3941 21.8176 14.3684 21.9632C14.3428 22.1088 14.3461 22.258 14.3781 22.4023C14.4101 22.5466 14.4702 22.6831 14.555 22.8042C14.6399 22.9253 14.7477 23.0284 14.8723 23.1078C14.997 23.1872 15.1361 23.2413 15.2817 23.2669L30.0298 25.8699C30.1779 25.9023 30.3311 25.9044 30.48 25.8761C30.629 25.8478 30.7707 25.7897 30.8966 25.7052C31.0226 25.6208 31.1302 25.5118 31.2129 25.3847C31.2957 25.2577 31.3519 25.1152 31.3782 24.9659C31.4046 24.8166 31.4005 24.6635 31.3661 24.5158C31.3318 24.3681 31.268 24.2289 31.1785 24.1064C31.0891 23.984 30.9758 23.881 30.8455 23.8034C30.7152 23.7259 30.5717 23.6755 30.4214 23.6552Z" fill="black"/>
</svg>
