<svg width="68" height="68" viewBox="0 0 68 68" fill="none" xmlns="http://www.w3.org/2000/svg">
<path d="M40.0002 64.8318C41.7443 64.8318 43.1581 63.4179 43.1581 61.6738C43.1581 59.9297 41.7443 58.5159 40.0002 58.5159C38.2561 58.5159 36.8422 59.9297 36.8422 61.6738C36.8422 63.4179 38.2561 64.8318 40.0002 64.8318Z" fill="#3E3D42"/>
<path d="M57.8953 64.8318C59.6394 64.8318 61.0533 63.4179 61.0533 61.6738C61.0533 59.9297 59.6394 58.5159 57.8953 58.5159C56.1512 58.5159 54.7374 59.9297 54.7374 61.6738C54.7374 63.4179 56.1512 64.8318 57.8953 64.8318Z" fill="#3E3D42"/>
<path d="M29.4736 55.3579C42.845 55.3579 53.6847 44.5182 53.6847 31.1468C53.6847 17.7753 42.845 6.93567 29.4736 6.93567C16.1022 6.93567 5.26251 17.7753 5.26251 31.1468C5.26251 44.5182 16.1022 55.3579 29.4736 55.3579Z" fill="#3D9AE2"/>
<path d="M29.4736 55.3579C42.845 55.3579 53.6847 44.5182 53.6847 31.1468C53.6847 17.7753 42.845 6.93567 29.4736 6.93567C16.1022 6.93567 5.26251 17.7753 5.26251 31.1468C5.26251 44.5182 16.1022 55.3579 29.4736 55.3579Z" fill="#3D9AE2"/>
<path d="M49.1583 17.0623C51.4692 20.2878 52.9514 24.0322 53.474 27.9655C53.9967 31.8988 53.5439 35.9004 52.1554 39.6174C50.767 43.3345 48.4856 46.653 45.5122 49.2804C42.5389 51.9079 38.965 53.7637 35.1053 54.6842L33.6842 51.1473L30.5263 44.8314L28.4209 41.6734L25.263 37.4628L26.3156 32.1995L28.4209 26.9362L36.8422 24.8309L44.2108 22.7256L49.1583 17.0623ZM43.6213 11.5043C43.0739 12.4727 42.516 13.2517 42.1055 13.2517C41.0528 13.2517 37.8949 16.4097 36.8422 16.4097C35.7895 16.4097 30.5263 18.515 30.5263 18.515L22.105 15.357L16.0312 11.0201C20.1303 8.27683 24.9705 6.85296 29.9021 6.93952C34.8337 7.02607 39.6209 8.6189 43.6213 11.5043ZM23.1577 43.7787L22.105 49.042L19.3681 53.1474C16.1802 51.6832 13.3485 49.5437 11.0691 46.877C8.78976 44.2103 7.11712 41.0801 6.167 37.7032C5.21688 34.3262 5.01197 30.7831 5.56647 27.3191C6.12097 23.8551 7.42162 20.5529 9.37839 17.6413L15.7891 19.5676L17.8944 24.8309L23.1577 29.0415C23.1577 29.0415 21.0524 31.1468 21.0524 32.1995C21.0524 33.2522 19.9997 36.4101 21.0524 37.4628C22.105 38.5154 23.1577 43.7787 23.1577 43.7787Z" fill="#91DC5A"/>
<path d="M30.5263 14.3043H23.805L18.947 3.77771H14.7364V14.3043H8.72154L7.36782 10.0936H3.1572V24.8308H7.36782L8.72154 20.6202H14.7364V31.1468H18.947L23.805 20.6202H30.5263C31.3638 20.6202 32.167 20.2875 32.7593 19.6953C33.3515 19.103 33.6842 18.2998 33.6842 17.4622C33.6842 16.6247 33.3515 15.8215 32.7593 15.2292C32.167 14.637 31.3638 14.3043 30.5263 14.3043Z" fill="#ED626F"/>
<path d="M62.106 26.9362H35.7895C34.6268 26.9362 33.6842 27.8787 33.6842 29.0415V59.5685C33.6842 60.7312 34.6268 61.6738 35.7895 61.6738H62.106C63.2687 61.6738 64.2113 60.7312 64.2113 59.5685V29.0415C64.2113 27.8787 63.2687 26.9362 62.106 26.9362Z" fill="#FFA733"/>
<path d="M56.8427 26.9362H54.7373V7.98838C54.7373 7.15083 54.4046 6.34759 53.8124 5.75536C53.2202 5.16312 52.4169 4.83041 51.5794 4.83041H47.3688C46.5312 4.83041 45.728 5.16312 45.1357 5.75536C44.5435 6.34759 44.2108 7.15083 44.2108 7.98838V26.9362H42.1055V7.98838C42.1071 6.59298 42.6622 5.25522 43.6489 4.26852C44.6356 3.28183 45.9734 2.72677 47.3688 2.7251H51.5794C52.9748 2.72677 54.3125 3.28183 55.2992 4.26852C56.2859 5.25522 56.841 6.59298 56.8427 7.98838V26.9362Z" fill="#57565C"/>
<path d="M57.8953 32.1995H60.0006V57.0843H57.8953V32.1995ZM51.5794 32.1995H53.6847V57.0843H51.5794V32.1995ZM45.2634 32.1995H47.3688V57.0843H45.2634V32.1995ZM38.9475 32.1995H41.0528V57.0843H38.9475V32.1995Z" fill="#EF8746"/>
<path d="M59.4638 48.3314L54.4289 53.3662C54.302 53.4932 54.1448 53.5855 53.9722 53.6346C53.7995 53.6837 53.6172 53.6878 53.4425 53.6465C53.2679 53.6053 53.1067 53.5201 52.9742 53.399C52.8417 53.2779 52.7424 53.1249 52.6857 52.9546L50.1688 45.4029C50.107 45.2174 50.098 45.0184 50.1429 44.8281C50.1878 44.6378 50.2848 44.4638 50.4231 44.3255C50.5613 44.1873 50.7353 44.0903 50.9256 44.0454C51.1159 44.0004 51.3149 44.0094 51.5004 44.0713L59.0532 46.5882C59.2234 46.645 59.3763 46.7444 59.4972 46.8769C59.6182 47.0094 59.7033 47.1707 59.7444 47.3453C59.7856 47.52 59.7814 47.7023 59.7323 47.8748C59.6831 48.0474 59.5907 48.2046 59.4638 48.3314Z" fill="#5BCBFA"/>
<path d="M37.8759 39.106L45.3182 31.6637L50.5278 36.8733L43.0855 44.3156L37.8759 39.106Z" fill="#ED626F"/>
</svg>
