<svg width="140" height="32" viewBox="0 0 140 32" fill="none" xmlns="http://www.w3.org/2000/svg">
<g clip-path="url(#clip0_0_4958)">
<path d="M16.7258 5.91352V27.1566H18.2262V11.149C18.2262 11.149 22.0334 16.6218 22.5517 19.5148C22.5517 19.5148 23.07 22.2923 20.9937 24.4339C20.6421 24.7959 20.2298 25.1397 19.9722 25.5869C19.7054 26.0523 19.6509 26.6273 19.666 27.1536V29.4412C19.666 29.4412 19.8115 30.4238 19.0022 30.4238C18.1959 30.4238 14.9374 30.4238 14.9374 30.4238V3.07827L14.3039 2.12305L13.3521 3.51025V30.3387L5.54081 30.4238C5.31651 30.4269 5.09826 30.3265 4.97399 30.1409C4.91639 30.0557 4.87396 29.9493 4.87396 29.8185C4.87396 29.3834 4.87396 29.1157 4.87396 29.1157H3.31897V29.7454C3.419 31.4247 4.489 31.9114 5.20739 31.9601C6.56232 32.0483 19.4963 31.9601 19.4963 31.9601C19.4963 31.9601 21.1392 31.8141 21.1695 30.1957L21.1968 26.8128C21.1968 26.6486 21.2635 26.4904 21.3786 26.3748C21.803 25.9519 22.8609 24.8203 23.361 23.6582C23.9945 22.1827 24.8615 20.5674 23.4186 17.0629C21.9758 13.5584 18.8416 8.95564 16.7258 5.91352Z" fill="white"/>
<path d="M11.1606 6.83887L9.60561 9.24214V27.1876H11.1606V6.83887Z" fill="white"/>
<path d="M13.1523 0.528927L12.6734 0.179084C12.246 -0.134254 11.6458 -0.0247379 11.3518 0.416369L6.31701 8.02774V25.4499H4.47103C4.47103 25.4499 1.81876 23.8011 1.93395 20.0076C1.93395 20.0076 2.42499 16.4483 4.90449 13.3788V10.3975C4.90449 10.3975 0.897287 16.0985 0.579015 19.0524C0.272868 21.9028 0.77301 24.4278 3.78902 26.9162C4.0012 27.0927 4.26794 27.187 4.54378 27.187H7.84472L7.87503 8.46276L13.1523 0.528927Z" fill="white"/>
</g>
<path d="M40.3957 27.448C40.3744 27.448 40.0224 27.4267 39.3397 27.384C38.6784 27.3627 37.9104 27.2773 37.0357 27.128C36.3104 27 35.649 26.9147 35.0517 26.872C34.4757 26.808 34.1237 26.776 33.9957 26.776C33.9744 25.0053 33.8784 22.8613 33.7077 20.344C33.8784 20.3227 34.049 20.312 34.2197 20.312C34.4117 20.312 34.5824 20.312 34.7317 20.312C35.137 22.1893 35.809 23.64 36.7477 24.664C37.7077 25.688 38.9664 26.2 40.5237 26.2C41.9104 26.2 43.041 25.8267 43.9157 25.08C44.7904 24.312 45.2277 23.3093 45.2277 22.072C45.2277 21.1333 44.9824 20.3653 44.4917 19.768C44.0224 19.1707 43.393 18.6693 42.6037 18.264C41.8357 17.8373 41.0144 17.4427 40.1397 17.08C39.1157 16.632 38.1344 16.1627 37.1957 15.672C36.2784 15.16 35.521 14.5093 34.9237 13.72C34.3264 12.9307 34.0277 11.9067 34.0277 10.648C34.0277 9.304 34.3584 8.152 35.0197 7.192C35.7024 6.232 36.609 5.50667 37.7397 5.016C38.8704 4.504 40.1184 4.248 41.4837 4.248C41.9104 4.248 42.3477 4.26933 42.7957 4.312C43.265 4.35467 43.745 4.41867 44.2357 4.504C44.8544 4.58933 45.3237 4.64267 45.6437 4.664C45.985 4.68533 46.209 4.696 46.3157 4.696C46.3797 4.696 46.497 4.696 46.6677 4.696C46.8384 4.67467 46.977 4.65333 47.0837 4.632C47.1264 5.57067 47.169 6.54133 47.2117 7.544C47.2544 8.54667 47.3184 9.592 47.4037 10.68C46.977 10.744 46.625 10.7653 46.3477 10.744C45.857 8.888 45.249 7.55467 44.5237 6.744C43.7984 5.912 42.7637 5.496 41.4197 5.496C40.2464 5.496 39.2437 5.816 38.4117 6.456C37.5797 7.07467 37.1637 8.00267 37.1637 9.24C37.1637 9.90133 37.313 10.488 37.6117 11C37.9317 11.512 38.4544 12.0027 39.1797 12.472C39.905 12.9413 40.9077 13.4427 42.1877 13.976C42.8917 14.2747 43.5957 14.6053 44.2997 14.968C45.025 15.3307 45.6864 15.768 46.2837 16.28C46.881 16.7707 47.361 17.3787 47.7237 18.104C48.0864 18.808 48.2677 19.6507 48.2677 20.632C48.2677 22.0827 47.905 23.32 47.1797 24.344C46.4544 25.3467 45.4944 26.1147 44.2997 26.648C43.1264 27.1813 41.825 27.448 40.3957 27.448ZM50.7277 27.032C50.6637 26.712 50.6637 26.3707 50.7277 26.008C51.709 25.9227 52.413 25.8267 52.8397 25.72C53.2877 25.6133 53.565 25.4 53.6717 25.08C53.7997 24.7387 53.8637 24.1947 53.8637 23.448V8.568C53.8637 7.672 53.8104 7.032 53.7037 6.648C53.597 6.264 53.3197 6.01867 52.8717 5.912C52.4237 5.784 51.6984 5.67733 50.6957 5.592C50.6317 5.272 50.6317 4.93067 50.6957 4.568C51.1224 4.568 51.645 4.57867 52.2637 4.6C52.9037 4.6 53.533 4.61067 54.1517 4.632C54.7704 4.632 55.2717 4.632 55.6557 4.632C56.0397 4.632 56.5304 4.632 57.1277 4.632C57.7464 4.61067 58.365 4.6 58.9837 4.6C59.6237 4.57867 60.1357 4.568 60.5197 4.568C60.5837 4.888 60.5837 5.22933 60.5197 5.592C59.5384 5.67733 58.8237 5.77333 58.3757 5.88C57.9277 5.98667 57.6504 6.21067 57.5437 6.552C57.437 6.872 57.3837 7.40533 57.3837 8.152V14.456H68.9037V8.568C68.9037 7.672 68.8504 7.032 68.7437 6.648C68.637 6.264 68.3704 6.01867 67.9437 5.912C67.517 5.784 66.8024 5.67733 65.7997 5.592C65.757 5.272 65.757 4.93067 65.7997 4.568C66.205 4.568 66.717 4.57867 67.3357 4.6C67.9544 4.6 68.573 4.61067 69.1917 4.632C69.8104 4.632 70.3117 4.632 70.6957 4.632C71.1224 4.632 71.6344 4.632 72.2317 4.632C72.829 4.61067 73.4264 4.6 74.0237 4.6C74.6424 4.57867 75.165 4.568 75.5917 4.568C75.6344 4.888 75.6344 5.22933 75.5917 5.592C74.589 5.67733 73.8637 5.77333 73.4157 5.88C72.9677 5.98667 72.6904 6.21067 72.5837 6.552C72.477 6.872 72.4237 7.40533 72.4237 8.152V23.032C72.4237 23.9067 72.477 24.5467 72.5837 24.952C72.6904 25.336 72.957 25.592 73.3837 25.72C73.8317 25.8267 74.5677 25.9227 75.5917 26.008C75.6344 26.3707 75.6344 26.712 75.5917 27.032C75.1437 27.032 74.6104 27.0213 73.9917 27C73.373 27 72.7544 27 72.1357 27C71.5384 26.9787 71.037 26.968 70.6317 26.968C70.2477 26.968 69.757 26.9787 69.1597 27C68.5624 27 67.965 27 67.3677 27C66.7704 27.0213 66.2584 27.032 65.8317 27.032C65.7677 26.712 65.7677 26.3707 65.8317 26.008C66.813 25.9227 67.517 25.8267 67.9437 25.72C68.3704 25.6133 68.637 25.4 68.7437 25.08C68.8504 24.7387 68.9037 24.1947 68.9037 23.448V15.864H57.3837V23.032C57.3837 23.928 57.437 24.568 57.5437 24.952C57.6504 25.336 57.917 25.592 58.3437 25.72C58.7917 25.8267 59.517 25.9227 60.5197 26.008C60.5624 26.3707 60.5624 26.712 60.5197 27.032C60.093 27.032 59.5704 27.0213 58.9517 27C58.333 27 57.7144 27 57.0957 27C56.4984 26.9787 55.997 26.968 55.5917 26.968C55.2077 26.968 54.7064 26.9787 54.0877 27C53.4904 27 52.8824 27 52.2637 27C51.6664 27.0213 51.1544 27.032 50.7277 27.032ZM77.6347 27.032C77.592 26.712 77.592 26.3707 77.6347 26.008C78.6374 25.9013 79.352 25.8053 79.7787 25.72C80.2054 25.6133 80.472 25.4 80.5787 25.08C80.6854 24.7387 80.7387 24.1947 80.7387 23.448V8.568C80.7387 7.672 80.6854 7.032 80.5787 6.648C80.472 6.264 80.1947 6.01867 79.7467 5.912C79.32 5.784 78.616 5.67733 77.6347 5.592C77.592 5.272 77.592 4.93067 77.6347 4.568C78.1894 4.568 78.6694 4.57867 79.0747 4.6C79.5014 4.6 79.928 4.6 80.3547 4.6C80.7814 4.6 81.2934 4.61067 81.8907 4.632C82.488 4.632 83.2454 4.632 84.1627 4.632C85.848 4.632 87.4267 4.632 88.8987 4.632C90.3707 4.61067 91.5974 4.6 92.5787 4.6C93.56 4.57867 94.136 4.568 94.3067 4.568C94.392 5.35733 94.488 6.168 94.5947 7C94.7227 7.832 94.8614 8.71733 95.0107 9.656C94.648 9.69867 94.296 9.69867 93.9547 9.656C93.6987 9.016 93.4 8.45067 93.0587 7.96C92.7174 7.46933 92.3654 7.096 92.0027 6.84C91.5974 6.54133 91.1067 6.31733 90.5307 6.168C89.976 6.01867 89.2827 5.944 88.4507 5.944H84.2587V14.68H86.0187C87.0427 14.68 87.8214 14.616 88.3547 14.488C88.888 14.3387 89.2827 14.0293 89.5387 13.56C89.7947 13.0693 89.9974 12.3013 90.1467 11.256C90.5307 11.192 90.8934 11.192 91.2347 11.256C91.2134 12.536 91.192 13.4747 91.1707 14.072C91.1707 14.6693 91.1707 15.1173 91.1707 15.416C91.1707 15.7573 91.1707 16.28 91.1707 16.984C91.192 17.6667 91.2134 18.552 91.2347 19.64C90.9147 19.704 90.552 19.704 90.1467 19.64C90.0187 18.5093 89.8267 17.6987 89.5707 17.208C89.3147 16.7173 88.9307 16.408 88.4187 16.28C87.928 16.152 87.224 16.088 86.3067 16.088H84.2587V23.032C84.2587 23.7573 84.2587 24.344 84.2587 24.792C84.28 25.2187 84.3014 25.496 84.3227 25.624H88.7067C89.7734 25.624 90.6267 25.5387 91.2667 25.368C91.928 25.176 92.472 24.8987 92.8987 24.536C93.1974 24.3013 93.5494 23.896 93.9547 23.32C94.36 22.7227 94.744 22.04 95.1067 21.272C95.448 21.2293 95.7787 21.2293 96.0987 21.272C95.8854 22.4667 95.704 23.544 95.5547 24.504C95.4054 25.464 95.2774 26.296 95.1707 27C94.2107 27 93.1654 27 92.0347 27C90.904 27 89.7734 27 88.6427 27C87.512 26.9787 86.4774 26.968 85.5387 26.968C84.6214 26.968 83.8854 26.968 83.3307 26.968C82.328 26.968 81.5067 26.9787 80.8667 27C80.248 27 79.6934 27 79.2027 27C78.7334 27.0213 78.2107 27.032 77.6347 27.032ZM107.479 27.064C106.733 27.064 105.954 27.0427 105.143 27C104.354 26.9787 103.65 26.968 103.031 26.968C102.69 26.968 102.21 26.9787 101.591 27C100.973 27 100.343 27 99.7035 27C99.0635 27.0213 98.5301 27.032 98.1035 27.032C98.0608 26.712 98.0608 26.3707 98.1035 26.008C99.1061 25.9013 99.8208 25.8053 100.247 25.72C100.674 25.6133 100.941 25.4 101.047 25.08C101.154 24.7387 101.207 24.1947 101.207 23.448V8.568C101.207 7.672 101.154 7.032 101.047 6.648C100.941 6.264 100.663 6.01867 100.215 5.912C99.7888 5.784 99.0848 5.67733 98.1035 5.592C98.0608 5.272 98.0608 4.93067 98.1035 4.568C98.5515 4.568 99.0848 4.57867 99.7035 4.6C100.322 4.6 100.93 4.61067 101.527 4.632C102.146 4.632 102.658 4.632 103.063 4.632C103.725 4.632 104.482 4.62133 105.335 4.6C106.21 4.57867 106.903 4.568 107.415 4.568C110.018 4.568 111.949 4.99467 113.207 5.848C114.466 6.70133 115.095 7.93867 115.095 9.56C115.095 12.2693 113.421 14.104 110.071 15.064V15.096C111.223 15.1813 112.269 15.448 113.207 15.896C114.167 16.344 114.935 16.9733 115.511 17.784C116.087 18.5947 116.375 19.5973 116.375 20.792C116.375 22.3067 115.917 23.576 114.999 24.6C114.082 25.6027 112.941 26.2853 111.575 26.648C110.978 26.7973 110.338 26.904 109.655 26.968C108.973 27.032 108.247 27.064 107.479 27.064ZM106.615 16.088C106.359 16.088 106.061 16.0987 105.719 16.12C105.399 16.12 105.069 16.1413 104.727 16.184V23.288C104.727 23.8213 104.727 24.2693 104.727 24.632C104.727 24.9947 104.738 25.2933 104.759 25.528C105.698 25.72 106.541 25.816 107.287 25.816C108.93 25.816 110.199 25.4107 111.095 24.6C112.013 23.768 112.471 22.5093 112.471 20.824C112.471 19.1813 112.002 17.9867 111.063 17.24C110.125 16.472 108.642 16.088 106.615 16.088ZM104.727 14.776C104.898 14.7973 105.047 14.808 105.175 14.808C105.325 14.808 105.463 14.808 105.591 14.808C107.639 14.808 109.09 14.4453 109.943 13.72C110.818 12.9733 111.255 11.8533 111.255 10.36C111.255 7.37333 109.709 5.88 106.615 5.88C106.295 5.88 105.986 5.90133 105.687 5.944C105.41 5.96533 105.09 5.99733 104.727 6.04V14.776ZM116.09 27.032C116.047 26.6907 116.047 26.3493 116.09 26.008C116.687 25.944 117.167 25.8693 117.53 25.784C117.892 25.6987 118.202 25.5493 118.458 25.336C118.714 25.1013 118.959 24.76 119.194 24.312C119.428 23.8427 119.706 23.192 120.026 22.36L126.938 4.632C127.172 4.54667 127.45 4.48267 127.77 4.44C128.111 4.39733 128.399 4.376 128.634 4.376L135.514 22.648C135.812 23.416 136.058 24.024 136.25 24.472C136.442 24.8987 136.655 25.208 136.89 25.4C137.124 25.592 137.423 25.7307 137.786 25.816C138.148 25.88 138.65 25.944 139.29 26.008C139.332 26.3493 139.332 26.6907 139.29 27.032C138.543 27.032 137.775 27.0213 136.986 27C136.196 26.9787 135.407 26.968 134.618 26.968C133.807 26.968 132.986 26.9787 132.154 27C131.343 27.0213 130.532 27.032 129.722 27.032C129.658 26.712 129.658 26.3707 129.722 26.008C130.767 25.9013 131.492 25.8053 131.898 25.72C132.303 25.6133 132.506 25.3573 132.506 24.952C132.506 24.7813 132.474 24.5893 132.41 24.376C132.346 24.1627 132.26 23.896 132.154 23.576L130.33 18.648H123.13L121.53 23.064C121.38 23.4693 121.263 23.8107 121.178 24.088C121.114 24.344 121.082 24.5787 121.082 24.792C121.082 25.2613 121.295 25.56 121.722 25.688C122.17 25.7947 122.895 25.9013 123.898 26.008C123.94 26.3707 123.94 26.712 123.898 27.032C123.172 27.032 122.458 27.0213 121.754 27C121.05 26.9787 120.335 26.968 119.61 26.968C119.012 26.968 118.436 26.9787 117.882 27C117.327 27.0213 116.73 27.032 116.09 27.032ZM123.61 17.304H129.85L126.714 8.792L123.61 17.304Z" fill="white"/>
<defs>
<clipPath id="clip0_0_4958">
<rect width="23.7037" height="32" fill="white" transform="translate(0.5)"/>
</clipPath>
</defs>
</svg>
