<svg width="139" height="33" viewBox="0 0 139 33" fill="none" xmlns="http://www.w3.org/2000/svg">
<g clip-path="url(#clip0_0_4664)">
<path d="M16.2258 6.41387V27.657H17.7263V11.6494C17.7263 11.6494 21.5334 17.1221 22.0517 20.0152C22.0517 20.0152 22.5701 22.7926 20.4937 24.9343C20.1421 25.2963 19.7299 25.64 19.4722 26.0872C19.2055 26.5527 19.1509 27.1276 19.1661 27.6539V29.9416C19.1661 29.9416 19.3116 30.9242 18.5022 30.9242C17.6959 30.9242 14.4374 30.9242 14.4374 30.9242V3.57862L13.8039 2.6234L12.8521 4.0106V30.839L5.04083 30.9242C4.81652 30.9272 4.59828 30.8268 4.474 30.6413C4.41641 30.5561 4.37397 30.4496 4.37397 30.3188C4.37397 29.8838 4.37397 29.6161 4.37397 29.6161H2.81898V30.2458C2.91901 31.925 3.98901 32.4118 4.7074 32.4605C6.06233 32.5487 18.9963 32.4605 18.9963 32.4605C18.9963 32.4605 20.6392 32.3144 20.6695 30.696L20.6968 27.3132C20.6968 27.1489 20.7635 26.9907 20.8787 26.8751C21.303 26.4523 22.3609 25.3206 22.861 24.1585C23.4946 22.6831 24.3615 21.0677 22.9186 17.5632C21.4758 14.0587 18.3416 9.45599 16.2258 6.41387Z" fill="url(#paint0_linear_0_4664)"/>
<path d="M10.6606 7.33867L9.10561 9.74194V27.6874H10.6606V7.33867Z" fill="url(#paint1_linear_0_4664)"/>
<path d="M12.6521 1.02933L12.1732 0.679484C11.7458 0.366147 11.1456 0.475663 10.8516 0.916769L5.8168 8.52814V25.9503H3.97082C3.97082 25.9503 1.31856 24.3015 1.43374 20.508C1.43374 20.508 1.92479 16.9487 4.40428 13.8792V10.8979C4.40428 10.8979 0.397081 16.5989 0.0788092 19.5528C-0.227338 22.4032 0.272804 24.9282 3.28881 27.4166C3.50099 27.5931 3.76774 27.6874 4.04357 27.6874H7.34451L7.37482 8.96316L12.6521 1.02933Z" fill="url(#paint2_linear_0_4664)"/>
</g>
<path d="M39.8957 27.948C39.8744 27.948 39.5224 27.9267 38.8397 27.884C38.1784 27.8627 37.4104 27.7773 36.5357 27.628C35.8104 27.5 35.149 27.4147 34.5517 27.372C33.9757 27.308 33.6237 27.276 33.4957 27.276C33.4744 25.5053 33.3784 23.3613 33.2077 20.844C33.3784 20.8227 33.549 20.812 33.7197 20.812C33.9117 20.812 34.0824 20.812 34.2317 20.812C34.637 22.6893 35.309 24.14 36.2477 25.164C37.2077 26.188 38.4664 26.7 40.0237 26.7C41.4104 26.7 42.541 26.3267 43.4157 25.58C44.2904 24.812 44.7277 23.8093 44.7277 22.572C44.7277 21.6333 44.4824 20.8653 43.9917 20.268C43.5224 19.6707 42.893 19.1693 42.1037 18.764C41.3357 18.3373 40.5144 17.9427 39.6397 17.58C38.6157 17.132 37.6344 16.6627 36.6957 16.172C35.7784 15.66 35.021 15.0093 34.4237 14.22C33.8264 13.4307 33.5277 12.4067 33.5277 11.148C33.5277 9.804 33.8584 8.652 34.5197 7.692C35.2024 6.732 36.109 6.00667 37.2397 5.516C38.3704 5.004 39.6184 4.748 40.9837 4.748C41.4104 4.748 41.8477 4.76933 42.2957 4.812C42.765 4.85467 43.245 4.91867 43.7357 5.004C44.3544 5.08933 44.8237 5.14267 45.1437 5.164C45.485 5.18533 45.709 5.196 45.8157 5.196C45.8797 5.196 45.997 5.196 46.1677 5.196C46.3384 5.17467 46.477 5.15333 46.5837 5.132C46.6264 6.07067 46.669 7.04133 46.7117 8.044C46.7544 9.04667 46.8184 10.092 46.9037 11.18C46.477 11.244 46.125 11.2653 45.8477 11.244C45.357 9.388 44.749 8.05467 44.0237 7.244C43.2984 6.412 42.2637 5.996 40.9197 5.996C39.7464 5.996 38.7437 6.316 37.9117 6.956C37.0797 7.57467 36.6637 8.50267 36.6637 9.74C36.6637 10.4013 36.813 10.988 37.1117 11.5C37.4317 12.012 37.9544 12.5027 38.6797 12.972C39.405 13.4413 40.4077 13.9427 41.6877 14.476C42.3917 14.7747 43.0957 15.1053 43.7997 15.468C44.525 15.8307 45.1864 16.268 45.7837 16.78C46.381 17.2707 46.861 17.8787 47.2237 18.604C47.5864 19.308 47.7677 20.1507 47.7677 21.132C47.7677 22.5827 47.405 23.82 46.6797 24.844C45.9544 25.8467 44.9944 26.6147 43.7997 27.148C42.6264 27.6813 41.325 27.948 39.8957 27.948ZM50.2277 27.532C50.1637 27.212 50.1637 26.8707 50.2277 26.508C51.209 26.4227 51.913 26.3267 52.3397 26.22C52.7877 26.1133 53.065 25.9 53.1717 25.58C53.2997 25.2387 53.3637 24.6947 53.3637 23.948V9.068C53.3637 8.172 53.3104 7.532 53.2037 7.148C53.097 6.764 52.8197 6.51867 52.3717 6.412C51.9237 6.284 51.1984 6.17733 50.1957 6.092C50.1317 5.772 50.1317 5.43067 50.1957 5.068C50.6224 5.068 51.145 5.07867 51.7637 5.1C52.4037 5.1 53.033 5.11067 53.6517 5.132C54.2704 5.132 54.7717 5.132 55.1557 5.132C55.5397 5.132 56.0304 5.132 56.6277 5.132C57.2464 5.11067 57.865 5.1 58.4837 5.1C59.1237 5.07867 59.6357 5.068 60.0197 5.068C60.0837 5.388 60.0837 5.72933 60.0197 6.092C59.0384 6.17733 58.3237 6.27333 57.8757 6.38C57.4277 6.48667 57.1504 6.71067 57.0437 7.052C56.937 7.372 56.8837 7.90533 56.8837 8.652V14.956H68.4037V9.068C68.4037 8.172 68.3504 7.532 68.2437 7.148C68.137 6.764 67.8704 6.51867 67.4437 6.412C67.017 6.284 66.3024 6.17733 65.2997 6.092C65.257 5.772 65.257 5.43067 65.2997 5.068C65.705 5.068 66.217 5.07867 66.8357 5.1C67.4544 5.1 68.073 5.11067 68.6917 5.132C69.3104 5.132 69.8117 5.132 70.1957 5.132C70.6224 5.132 71.1344 5.132 71.7317 5.132C72.329 5.11067 72.9264 5.1 73.5237 5.1C74.1424 5.07867 74.665 5.068 75.0917 5.068C75.1344 5.388 75.1344 5.72933 75.0917 6.092C74.089 6.17733 73.3637 6.27333 72.9157 6.38C72.4677 6.48667 72.1904 6.71067 72.0837 7.052C71.977 7.372 71.9237 7.90533 71.9237 8.652V23.532C71.9237 24.4067 71.977 25.0467 72.0837 25.452C72.1904 25.836 72.457 26.092 72.8837 26.22C73.3317 26.3267 74.0677 26.4227 75.0917 26.508C75.1344 26.8707 75.1344 27.212 75.0917 27.532C74.6437 27.532 74.1104 27.5213 73.4917 27.5C72.873 27.5 72.2544 27.5 71.6357 27.5C71.0384 27.4787 70.537 27.468 70.1317 27.468C69.7477 27.468 69.257 27.4787 68.6597 27.5C68.0624 27.5 67.465 27.5 66.8677 27.5C66.2704 27.5213 65.7584 27.532 65.3317 27.532C65.2677 27.212 65.2677 26.8707 65.3317 26.508C66.313 26.4227 67.017 26.3267 67.4437 26.22C67.8704 26.1133 68.137 25.9 68.2437 25.58C68.3504 25.2387 68.4037 24.6947 68.4037 23.948V16.364H56.8837V23.532C56.8837 24.428 56.937 25.068 57.0437 25.452C57.1504 25.836 57.417 26.092 57.8437 26.22C58.2917 26.3267 59.017 26.4227 60.0197 26.508C60.0624 26.8707 60.0624 27.212 60.0197 27.532C59.593 27.532 59.0704 27.5213 58.4517 27.5C57.833 27.5 57.2144 27.5 56.5957 27.5C55.9984 27.4787 55.497 27.468 55.0917 27.468C54.7077 27.468 54.2064 27.4787 53.5877 27.5C52.9904 27.5 52.3824 27.5 51.7637 27.5C51.1664 27.5213 50.6544 27.532 50.2277 27.532ZM77.1347 27.532C77.092 27.212 77.092 26.8707 77.1347 26.508C78.1374 26.4013 78.852 26.3053 79.2787 26.22C79.7054 26.1133 79.972 25.9 80.0787 25.58C80.1854 25.2387 80.2387 24.6947 80.2387 23.948V9.068C80.2387 8.172 80.1854 7.532 80.0787 7.148C79.972 6.764 79.6947 6.51867 79.2467 6.412C78.82 6.284 78.116 6.17733 77.1347 6.092C77.092 5.772 77.092 5.43067 77.1347 5.068C77.6894 5.068 78.1694 5.07867 78.5747 5.1C79.0014 5.1 79.428 5.1 79.8547 5.1C80.2814 5.1 80.7934 5.11067 81.3907 5.132C81.988 5.132 82.7454 5.132 83.6627 5.132C85.348 5.132 86.9267 5.132 88.3987 5.132C89.8707 5.11067 91.0974 5.1 92.0787 5.1C93.06 5.07867 93.636 5.068 93.8067 5.068C93.892 5.85733 93.988 6.668 94.0947 7.5C94.2227 8.332 94.3614 9.21733 94.5107 10.156C94.148 10.1987 93.796 10.1987 93.4547 10.156C93.1987 9.516 92.9 8.95067 92.5587 8.46C92.2174 7.96933 91.8654 7.596 91.5027 7.34C91.0974 7.04133 90.6067 6.81733 90.0307 6.668C89.476 6.51867 88.7827 6.444 87.9507 6.444H83.7587V15.18H85.5187C86.5427 15.18 87.3214 15.116 87.8547 14.988C88.388 14.8387 88.7827 14.5293 89.0387 14.06C89.2947 13.5693 89.4974 12.8013 89.6467 11.756C90.0307 11.692 90.3934 11.692 90.7347 11.756C90.7134 13.036 90.692 13.9747 90.6707 14.572C90.6707 15.1693 90.6707 15.6173 90.6707 15.916C90.6707 16.2573 90.6707 16.78 90.6707 17.484C90.692 18.1667 90.7134 19.052 90.7347 20.14C90.4147 20.204 90.052 20.204 89.6467 20.14C89.5187 19.0093 89.3267 18.1987 89.0707 17.708C88.8147 17.2173 88.4307 16.908 87.9187 16.78C87.428 16.652 86.724 16.588 85.8067 16.588H83.7587V23.532C83.7587 24.2573 83.7587 24.844 83.7587 25.292C83.78 25.7187 83.8014 25.996 83.8227 26.124H88.2067C89.2734 26.124 90.1267 26.0387 90.7667 25.868C91.428 25.676 91.972 25.3987 92.3987 25.036C92.6974 24.8013 93.0494 24.396 93.4547 23.82C93.86 23.2227 94.244 22.54 94.6067 21.772C94.948 21.7293 95.2787 21.7293 95.5987 21.772C95.3854 22.9667 95.204 24.044 95.0547 25.004C94.9054 25.964 94.7774 26.796 94.6707 27.5C93.7107 27.5 92.6654 27.5 91.5347 27.5C90.404 27.5 89.2734 27.5 88.1427 27.5C87.012 27.4787 85.9774 27.468 85.0387 27.468C84.1214 27.468 83.3854 27.468 82.8307 27.468C81.828 27.468 81.0067 27.4787 80.3667 27.5C79.748 27.5 79.1934 27.5 78.7027 27.5C78.2334 27.5213 77.7107 27.532 77.1347 27.532ZM106.979 27.564C106.233 27.564 105.454 27.5427 104.643 27.5C103.854 27.4787 103.15 27.468 102.531 27.468C102.19 27.468 101.71 27.4787 101.091 27.5C100.473 27.5 99.8435 27.5 99.2035 27.5C98.5635 27.5213 98.0301 27.532 97.6035 27.532C97.5608 27.212 97.5608 26.8707 97.6035 26.508C98.6061 26.4013 99.3208 26.3053 99.7475 26.22C100.174 26.1133 100.441 25.9 100.547 25.58C100.654 25.2387 100.707 24.6947 100.707 23.948V9.068C100.707 8.172 100.654 7.532 100.547 7.148C100.441 6.764 100.163 6.51867 99.7155 6.412C99.2888 6.284 98.5848 6.17733 97.6035 6.092C97.5608 5.772 97.5608 5.43067 97.6035 5.068C98.0515 5.068 98.5848 5.07867 99.2035 5.1C99.8221 5.1 100.43 5.11067 101.027 5.132C101.646 5.132 102.158 5.132 102.563 5.132C103.225 5.132 103.982 5.12133 104.835 5.1C105.71 5.07867 106.403 5.068 106.915 5.068C109.518 5.068 111.449 5.49467 112.707 6.348C113.966 7.20133 114.595 8.43867 114.595 10.06C114.595 12.7693 112.921 14.604 109.571 15.564V15.596C110.723 15.6813 111.769 15.948 112.707 16.396C113.667 16.844 114.435 17.4733 115.011 18.284C115.587 19.0947 115.875 20.0973 115.875 21.292C115.875 22.8067 115.417 24.076 114.499 25.1C113.582 26.1027 112.441 26.7853 111.075 27.148C110.478 27.2973 109.838 27.404 109.155 27.468C108.473 27.532 107.747 27.564 106.979 27.564ZM106.115 16.588C105.859 16.588 105.561 16.5987 105.219 16.62C104.899 16.62 104.569 16.6413 104.227 16.684V23.788C104.227 24.3213 104.227 24.7693 104.227 25.132C104.227 25.4947 104.238 25.7933 104.259 26.028C105.198 26.22 106.041 26.316 106.787 26.316C108.43 26.316 109.699 25.9107 110.595 25.1C111.513 24.268 111.971 23.0093 111.971 21.324C111.971 19.6813 111.502 18.4867 110.563 17.74C109.625 16.972 108.142 16.588 106.115 16.588ZM104.227 15.276C104.398 15.2973 104.547 15.308 104.675 15.308C104.825 15.308 104.963 15.308 105.091 15.308C107.139 15.308 108.59 14.9453 109.443 14.22C110.318 13.4733 110.755 12.3533 110.755 10.86C110.755 7.87333 109.209 6.38 106.115 6.38C105.795 6.38 105.486 6.40133 105.187 6.444C104.91 6.46533 104.59 6.49733 104.227 6.54V15.276ZM115.59 27.532C115.547 27.1907 115.547 26.8493 115.59 26.508C116.187 26.444 116.667 26.3693 117.03 26.284C117.392 26.1987 117.702 26.0493 117.958 25.836C118.214 25.6013 118.459 25.26 118.694 24.812C118.928 24.3427 119.206 23.692 119.526 22.86L126.438 5.132C126.672 5.04667 126.95 4.98267 127.27 4.94C127.611 4.89733 127.899 4.876 128.134 4.876L135.014 23.148C135.312 23.916 135.558 24.524 135.75 24.972C135.942 25.3987 136.155 25.708 136.39 25.9C136.624 26.092 136.923 26.2307 137.286 26.316C137.648 26.38 138.15 26.444 138.79 26.508C138.832 26.8493 138.832 27.1907 138.79 27.532C138.043 27.532 137.275 27.5213 136.486 27.5C135.696 27.4787 134.907 27.468 134.118 27.468C133.307 27.468 132.486 27.4787 131.654 27.5C130.843 27.5213 130.032 27.532 129.222 27.532C129.158 27.212 129.158 26.8707 129.222 26.508C130.267 26.4013 130.992 26.3053 131.398 26.22C131.803 26.1133 132.006 25.8573 132.006 25.452C132.006 25.2813 131.974 25.0893 131.91 24.876C131.846 24.6627 131.76 24.396 131.654 24.076L129.83 19.148H122.63L121.03 23.564C120.88 23.9693 120.763 24.3107 120.678 24.588C120.614 24.844 120.582 25.0787 120.582 25.292C120.582 25.7613 120.795 26.06 121.222 26.188C121.67 26.2947 122.395 26.4013 123.398 26.508C123.44 26.8707 123.44 27.212 123.398 27.532C122.672 27.532 121.958 27.5213 121.254 27.5C120.55 27.4787 119.835 27.468 119.11 27.468C118.512 27.468 117.936 27.4787 117.382 27.5C116.827 27.5213 116.23 27.532 115.59 27.532ZM123.11 17.804H129.35L126.214 9.292L123.11 17.804Z" fill="url(#paint3_linear_0_4664)"/>
<defs>
<linearGradient id="paint0_linear_0_4664" x1="2.81898" y1="17.5615" x2="25.7123" y2="17.5615" gradientUnits="userSpaceOnUse">
<stop stop-color="#77A1D3"/>
<stop offset="0.46445" stop-color="#79CBCA"/>
<stop offset="1" stop-color="#E684AE"/>
</linearGradient>
<linearGradient id="paint1_linear_0_4664" x1="9.10561" y1="17.513" x2="10.8101" y2="17.513" gradientUnits="userSpaceOnUse">
<stop stop-color="#77A1D3"/>
<stop offset="0.46445" stop-color="#79CBCA"/>
<stop offset="1" stop-color="#E684AE"/>
</linearGradient>
<linearGradient id="paint2_linear_0_4664" x1="0.000770569" y1="14.0939" x2="13.8685" y2="14.0939" gradientUnits="userSpaceOnUse">
<stop stop-color="#77A1D3"/>
<stop offset="0.46445" stop-color="#79CBCA"/>
<stop offset="1" stop-color="#E684AE"/>
</linearGradient>
<linearGradient id="paint3_linear_0_4664" x1="31.7037" y1="16.5" x2="148.992" y2="16.5" gradientUnits="userSpaceOnUse">
<stop stop-color="#77A1D3"/>
<stop offset="0.46445" stop-color="#79CBCA"/>
<stop offset="1" stop-color="#E684AE"/>
</linearGradient>
<clipPath id="clip0_0_4664">
<rect width="23.7037" height="32" fill="white" transform="translate(0 0.5)"/>
</clipPath>
</defs>
</svg>
